<?xml version="1.0" encoding="utf-8"?>
<!-- Generator: Adobe Illustrator 23.0.4, SVG Export Plug-In . SVG Version: 6.00 Build 0)  -->
<svg version="1.1" id="Layer_1" xmlns="http://www.w3.org/2000/svg" xmlns:xlink="http://www.w3.org/1999/xlink" x="0px" y="0px"
	 viewBox="0 0 238 48" style="enable-background:new 0 0 238 48;" xml:space="preserve">
<style type="text/css">
	.st0{fill:#FFFFFF;}
	.st1{fill:#EC6607;}
</style>
<path class="st0" d="M12.3,17.8c0,3.2-2.2,5.4-5.3,5.4H4.1V12.3H7C10.2,12.3,12.3,14.5,12.3,17.8z M7,9.3H1c-0.1,0-0.2,0.1-0.2,0.2
	v16.4c0,0.1,0.1,0.2,0.2,0.2h6c5.1,0,8.6-3.5,8.6-8.4C15.7,12.8,12.1,9.3,7,9.3z"/>
<path class="st0" d="M27.8,20h-5.3l2.7-7.3L27.8,20z M27.1,9.5c0-0.1-0.1-0.2-0.2-0.2h-3.5c-0.1,0-0.2,0.1-0.2,0.2l-6.3,16.4
	c0,0.1,0,0.2,0,0.2c0,0.1,0.1,0.1,0.2,0.1h3.1c0.1,0,0.2-0.1,0.2-0.2l1.1-3h7.3l1.1,3c0,0.1,0.1,0.2,0.2,0.2h3.1
	c0.1,0,0.2,0,0.2-0.1c0-0.1,0.1-0.2,0-0.2L27.1,9.5z"/>
<path class="st0" d="M46.3,12.1V9.6c0-0.1-0.1-0.2-0.2-0.2H33.5c-0.1,0-0.2,0.1-0.2,0.2v2.5c0,0.1,0.1,0.2,0.2,0.2h4.6v13.6
	c0,0.1,0.1,0.2,0.2,0.2h2.8c0.1,0,0.2-0.1,0.2-0.2V12.3h4.6C46.2,12.3,46.3,12.2,46.3,12.1z"/>
<path class="st0" d="M57.1,20h-5.3l2.7-7.3L57.1,20z M56.4,9.5c0-0.1-0.1-0.2-0.2-0.2h-3.5c-0.1,0-0.2,0.1-0.2,0.2l-6.3,16.4
	c0,0.1,0,0.2,0,0.2c0,0.1,0.1,0.1,0.2,0.1h3.1c0.1,0,0.2-0.1,0.2-0.2l1.1-3h7.3l1.1,3c0,0.1,0.1,0.2,0.2,0.2h3.1
	c0.1,0,0.2,0,0.2-0.1c0-0.1,0.1-0.2,0-0.2L56.4,9.5z"/>
<path class="st0" d="M81.7,9.3h-1.6c-0.1,0-0.2,0.1-0.2,0.2l-5.6,14.3L68.7,9.5c0-0.1-0.1-0.2-0.2-0.2h-1.6c-0.1,0-0.2,0-0.2,0.1
	c0,0.1-0.1,0.2,0,0.2L73.2,26c0,0.1,0.1,0.2,0.2,0.2h1.7c0.1,0,0.2-0.1,0.2-0.2l6.6-16.4c0-0.1,0-0.2,0-0.2
	C81.9,9.4,81.8,9.3,81.7,9.3z"/>
<path class="st0" d="M95.2,9.3H85c-0.1,0-0.2,0.1-0.2,0.2v16.4c0,0.1,0.1,0.2,0.2,0.2h10.2c0.1,0,0.2-0.1,0.2-0.2v-1.3
	c0-0.1-0.1-0.2-0.2-0.2h-8.6v-6h8.4c0.1,0,0.2-0.1,0.2-0.2v-1.3c0-0.1-0.1-0.2-0.2-0.2h-8.4v-5.6h8.6c0.1,0,0.2-0.1,0.2-0.2V9.6
	C95.5,9.4,95.4,9.3,95.2,9.3z"/>
<path class="st0" d="M112.9,9.3h-1.4c-0.1,0-0.2,0.1-0.2,0.2v13.2l-9.6-13.4c0-0.1-0.1-0.1-0.2-0.1H100c-0.1,0-0.2,0.1-0.2,0.2v16.4
	c0,0.1,0.1,0.2,0.2,0.2h1.4c0.1,0,0.2-0.1,0.2-0.2V12.5l9.7,13.6c0,0.1,0.1,0.1,0.2,0.1h1.3c0.1,0,0.2-0.1,0.2-0.2V9.6
	C113.1,9.4,113,9.3,112.9,9.3z"/>
<path class="st0" d="M128.6,9.5h-11.9c-0.1,0-0.2,0.1-0.2,0.2V11c0,0.1,0.1,0.2,0.2,0.2h5v14.9c0,0.1,0.1,0.2,0.2,0.2h1.4
	c0.1,0,0.2-0.1,0.2-0.2V11.3h5c0.1,0,0.2-0.1,0.2-0.2V9.7C128.8,9.6,128.7,9.5,128.6,9.5z"/>
<path class="st0" d="M144.4,9.3H143c-0.1,0-0.2,0.1-0.2,0.2v10.1c0,3.3-1.6,5.1-4.6,5.1c-2.9,0-4.6-1.9-4.6-5.1V9.6
	c0-0.1-0.1-0.2-0.2-0.2h-1.4c-0.1,0-0.2,0.1-0.2,0.2v10.1c0,4.3,2.4,6.8,6.5,6.8c4.1,0,6.5-2.5,6.5-6.8V9.6
	C144.7,9.4,144.6,9.3,144.4,9.3z"/>
<path class="st0" d="M158.6,14.4c0,1.9-1.4,3.3-3.3,3.3H151v-6.6h4.3C157.2,11.1,158.6,12.4,158.6,14.4z M156.2,19.3
	c2.2-0.3,4.3-1.8,4.3-4.9c0-3-2.1-5-5.1-5h-6c-0.1,0-0.2,0.1-0.2,0.2v16.4c0,0.1,0.1,0.2,0.2,0.2h1.4c0.1,0,0.2-0.1,0.2-0.2v-6.5
	h3.2l4.4,6.7c0,0.1,0.1,0.1,0.2,0.1h1.7c0.1,0,0.2,0,0.2-0.1c0-0.1,0-0.2,0-0.2L156.2,19.3z"/>
<path class="st0" d="M175.3,9.3h-10.2c-0.1,0-0.2,0.1-0.2,0.2v16.4c0,0.1,0.1,0.2,0.2,0.2h10.2c0.1,0,0.2-0.1,0.2-0.2v-1.3
	c0-0.1-0.1-0.2-0.2-0.2h-8.6v-6h8.4c0.1,0,0.2-0.1,0.2-0.2v-1.3c0-0.1-0.1-0.2-0.2-0.2h-8.4v-5.6h8.6c0.1,0,0.2-0.1,0.2-0.2V9.6
	C175.5,9.4,175.4,9.3,175.3,9.3z"/>
<path class="st0" d="M185.4,16.5c-2.4-0.6-4-1.2-4-2.9c0-1.6,1.5-2.8,3.5-2.8c1.8,0,3.4,0.7,4.4,2c0,0.1,0.1,0.1,0.2,0.1
	c0.1,0,0.1,0,0.2-0.1l0.9-1c0.1-0.1,0.1-0.2,0-0.3c-1.4-1.6-3.3-2.4-5.6-2.4c-3.2,0-5.5,1.9-5.5,4.6c0,3.2,2.8,4,5.3,4.7l0.1,0
	c2.5,0.7,4.2,1.3,4.2,3.3c0,1.5-1.1,3-4,3c-2.5,0-4.1-1.4-4.8-2.3c0-0.1-0.1-0.1-0.2-0.1c-0.1,0-0.1,0-0.2,0.1l-0.9,1.1
	c-0.1,0.1-0.1,0.2,0,0.3c1.4,1.7,3.6,2.7,6.1,2.7c4.4,0,5.9-2.5,5.9-4.9C191,18.1,188.1,17.2,185.4,16.5z"/>
<path class="st1" d="M236.9,16.9c-0.8,9.1-6,16.3-15,16.3c-9,0-17.5-8-17.5-17.2c0-9.7,6.1-16.1,15.9-16.1
	C228.4,0,237.9,6.9,236.9,16.9z"/>
<path class="st0" d="M5,44.5c2.2,0,3.8-1.4,3.8-4.1v-5.6h-1v5.7c0,1.9-1,3.2-2.8,3.2s-2.8-1.3-2.8-3.2v-5.7h-1v5.6
	C1.2,43.1,2.7,44.5,5,44.5z M12.1,37.5h-0.9v6.9h1v-4.1c0-1.4,0.9-2.1,2.1-2.1c1.2,0,1.8,0.8,1.8,2v4.2h1v-4.4
	c0-1.5-0.9-2.6-2.6-2.6c-1.3,0-2,0.8-2.3,1.2V37.5z M19.8,35.8c0.4,0,0.7-0.3,0.7-0.7c0-0.4-0.3-0.7-0.7-0.7c-0.4,0-0.7,0.3-0.7,0.7
	C19.1,35.5,19.4,35.8,19.8,35.8z M19.3,44.3h1v-6.9h-1V44.3z M28,43.1v4h1v-9.7H28v1.3c-0.5-0.9-1.3-1.4-2.6-1.4
	c-2.1,0-3.2,1.7-3.2,3.6c0,1.9,1.1,3.6,3.2,3.6C26.7,44.5,27.6,43.9,28,43.1z M28,40.9c0,1.5-0.9,2.7-2.4,2.7s-2.5-1.2-2.5-2.7
	c0-1.5,0.9-2.7,2.5-2.7S28,39.4,28,40.9z M34.2,44.5c1.9,0,2.8-1.2,2.8-2.8v-4.3h-1v4.2c0,1.2-0.7,2-1.9,2s-1.9-0.8-1.9-2v-4.2h-1
	v4.3C31.3,43.2,32.2,44.5,34.2,44.5z M45.5,41.2c0,0,0-0.2,0-0.4c0-1.9-1.3-3.5-3.3-3.5c-2.1,0-3.4,1.7-3.4,3.6
	c0,1.9,1.2,3.6,3.4,3.6c1.6,0,2.8-1,3.2-2.3h-1c-0.3,0.8-1.1,1.4-2.2,1.4c-1.4,0-2.3-1.1-2.4-2.5H45.5z M42.3,38.2
	c1.3,0,2.2,0.9,2.3,2.2h-4.7C40,39.1,40.9,38.2,42.3,38.2z M52.3,38.3h1.4v-0.8h-1.4v-2h-1v2H50v0.8h1.3v6h1V38.3z M58.4,37.4
	c0,0-0.2,0-0.2,0c-1.3,0-1.9,0.7-2.2,1.1v-1.1h-0.9v6.9h1v-3.9c0-1.4,0.9-2.1,2-2.1c0.2,0,0.3,0,0.3,0V37.4z M62.7,44.5
	c1.9,0,2.8-1.2,2.8-2.8v-4.3h-1v4.2c0,1.2-0.7,2-1.9,2s-1.9-0.8-1.9-2v-4.2h-1v4.3C59.8,43.2,60.7,44.5,62.7,44.5z M70.1,44.5
	c1.9,0,2.7-1,2.7-2c0-2.9-4.2-1.3-4.2-3.2c0-0.6,0.5-1.1,1.6-1.1c1.1,0,1.6,0.6,1.7,1.3h1c-0.1-0.9-0.7-2.2-2.6-2.2
	c-1.6,0-2.5,1-2.5,2c0,2.8,4.2,1.2,4.2,3.2c0,0.7-0.6,1.2-1.8,1.2c-1.2,0-1.8-0.6-1.8-1.5h-1C67.3,43.4,68.1,44.5,70.1,44.5z
	 M76,38.3h1.4v-0.8H76v-2h-1v2h-1.3v0.8H75v6h1V38.3z M84.8,41.2c0,0,0-0.2,0-0.4c0-1.9-1.3-3.5-3.3-3.5c-2.1,0-3.4,1.7-3.4,3.6
	c0,1.9,1.2,3.6,3.4,3.6c1.6,0,2.8-1,3.2-2.3h-1c-0.3,0.8-1.1,1.4-2.2,1.4c-1.4,0-2.3-1.1-2.4-2.5H84.8z M81.5,38.2
	c1.3,0,2.2,0.9,2.3,2.2h-4.7C79.3,39.1,80.1,38.2,81.5,38.2z M92,38.7c-0.5-0.8-1.3-1.4-2.6-1.4c-2.1,0-3.2,1.7-3.2,3.6
	c0,1.9,1.1,3.6,3.2,3.6c1.3,0,2.1-0.6,2.6-1.4v1.3h0.9V34.2h-1V38.7z M92,40.9c0,1.5-0.9,2.7-2.4,2.7c-1.5,0-2.5-1.2-2.5-2.7
	c0-1.5,0.9-2.7,2.5-2.7C91.1,38.2,92,39.4,92,40.9z M104.3,38.7c-0.5-0.8-1.3-1.4-2.6-1.4c-2.1,0-3.2,1.7-3.2,3.6
	c0,1.9,1.1,3.6,3.2,3.6c1.3,0,2.1-0.6,2.6-1.4v1.3h0.9V34.2h-1V38.7z M104.3,40.9c0,1.5-0.9,2.7-2.4,2.7c-1.5,0-2.5-1.2-2.5-2.7
	c0-1.5,0.9-2.7,2.5-2.7C103.4,38.2,104.3,39.4,104.3,40.9z M113.9,37.5H113v1.3c-0.5-0.9-1.3-1.4-2.6-1.4c-2.1,0-3.2,1.7-3.2,3.6
	s1.1,3.6,3.2,3.6c1.3,0,2.1-0.6,2.6-1.4v1.3h0.9V37.5z M108.1,40.9c0-1.5,0.9-2.7,2.5-2.7c1.5,0,2.4,1.2,2.4,2.7s-0.9,2.7-2.4,2.7
	C109,43.6,108.1,42.4,108.1,40.9z M117.6,38.3h1.4v-0.8h-1.4v-2h-1v2h-1.3v0.8h1.3v6h1V38.3z M126.4,37.5h-0.9v1.3
	c-0.5-0.9-1.3-1.4-2.6-1.4c-2.1,0-3.2,1.7-3.2,3.6s1.1,3.6,3.2,3.6c1.3,0,2.1-0.6,2.6-1.4v1.3h0.9V37.5z M120.7,40.9
	c0-1.5,0.9-2.7,2.4-2.7c1.5,0,2.4,1.2,2.4,2.7s-0.9,2.7-2.4,2.7C121.6,43.6,120.7,42.4,120.7,40.9z"/>
</svg>
