<?xml version="1.0" encoding="utf-8"?>
<!-- Generator: Adobe Illustrator 23.0.4, SVG Export Plug-In . SVG Version: 6.00 Build 0)  -->
<svg version="1.1" id="Layer_1" xmlns="http://www.w3.org/2000/svg" xmlns:xlink="http://www.w3.org/1999/xlink" x="0px" y="0px"
	 viewBox="0 0 448 64" style="enable-background:new 0 0 448 64;" xml:space="preserve">
<style type="text/css">
	.st0{fill:#FFFFFF;}
	.st1{fill:#EE6823;}
</style>
<path class="st0" d="M21.8,33.7c0,6-4.1,10.3-10,10.3H6.2V23.4h5.5C17.9,23.4,21.8,27.4,21.8,33.7z M11.8,17.7H0.5
	c-0.3,0-0.5,0.2-0.5,0.5v31.1c0,0.3,0.2,0.5,0.5,0.5h11.3c9.7,0,16.4-6.6,16.4-16C28.2,24.3,21.4,17.7,11.8,17.7z"/>
<path class="st0" d="M51.2,38H41L46.1,24L51.2,38z M49.8,18c-0.1-0.2-0.2-0.3-0.4-0.3h-6.7c-0.2,0-0.3,0.1-0.4,0.3L30.4,49
	c-0.1,0.1,0,0.3,0,0.4c0.1,0.1,0.2,0.2,0.4,0.2h5.8c0.2,0,0.3-0.1,0.4-0.3l2.1-5.7H53l2.1,5.7c0.1,0.2,0.2,0.3,0.4,0.3h5.8
	c0.2,0,0.3-0.1,0.4-0.2c0.1-0.1,0.1-0.3,0-0.4L49.8,18z"/>
<path class="st0" d="M86.3,22.9v-4.8c0-0.3-0.2-0.5-0.5-0.5H62c-0.2,0-0.5,0.2-0.5,0.5v4.8c0,0.3,0.2,0.5,0.5,0.5h8.8v25.8
	c0,0.3,0.2,0.5,0.5,0.5h5.3c0.2,0,0.5-0.2,0.5-0.5V23.4h8.8C86.1,23.4,86.3,23.2,86.3,22.9z"/>
<path class="st0" d="M106.8,38H96.7l5.1-13.9L106.8,38z M105.5,18c-0.1-0.2-0.2-0.3-0.4-0.3h-6.7c-0.2,0-0.3,0.1-0.4,0.3L86,49
	c-0.1,0.1,0,0.3,0,0.4c0.1,0.1,0.2,0.2,0.4,0.2h5.8c0.2,0,0.3-0.1,0.4-0.3l2.1-5.7h13.8l2.1,5.7c0.1,0.2,0.2,0.3,0.4,0.3h5.8
	c0.2,0,0.3-0.1,0.4-0.2c0.1-0.1,0.1-0.3,0-0.4L105.5,18z"/>
<path class="st0" d="M153.5,17.7h-3c-0.2,0-0.3,0.1-0.4,0.3L139.4,45l-10.6-27c-0.1-0.2-0.2-0.3-0.4-0.3h-3c-0.2,0-0.3,0.1-0.4,0.2
	c-0.1,0.1-0.1,0.3,0,0.4l12.5,31.1c0.1,0.2,0.2,0.3,0.4,0.3h3.2c0.2,0,0.3-0.1,0.4-0.3l12.5-31.1c0.1-0.1,0-0.3,0-0.4
	C153.8,17.8,153.7,17.7,153.5,17.7z"/>
<path class="st0" d="M179.1,17.7h-19.3c-0.2,0-0.5,0.2-0.5,0.5v31.1c0,0.3,0.2,0.5,0.5,0.5h19.3c0.2,0,0.4-0.2,0.4-0.5v-2.4
	c0-0.3-0.2-0.5-0.4-0.5h-16.3V34.9h16c0.3,0,0.5-0.2,0.5-0.5v-2.4c0-0.3-0.2-0.5-0.5-0.5h-16V21h16.3c0.2,0,0.4-0.2,0.4-0.5v-2.4
	C179.6,17.9,179.4,17.7,179.1,17.7z"/>
<path class="st0" d="M212.6,17.7H210c-0.3,0-0.5,0.2-0.5,0.5v25.1l-18.3-25.4c-0.1-0.1-0.2-0.2-0.4-0.2h-2.6c-0.2,0-0.5,0.2-0.5,0.5
	v31.1c0,0.3,0.2,0.5,0.5,0.5h2.6c0.3,0,0.4-0.2,0.4-0.5V23.8l18.4,25.7c0.1,0.1,0.2,0.2,0.4,0.2h2.6c0.2,0,0.4-0.2,0.4-0.5V18.1
	C213,17.9,212.8,17.7,212.6,17.7z"/>
<path class="st0" d="M242.4,17.7h-22.6c-0.2,0-0.5,0.2-0.5,0.5v2.4c0,0.3,0.2,0.5,0.5,0.5h9.5v28.2c0,0.3,0.2,0.5,0.5,0.5h2.6
	c0.2,0,0.5-0.2,0.5-0.5V21h9.5c0.2,0,0.5-0.2,0.5-0.5v-2.4C242.8,17.9,242.6,17.7,242.4,17.7z"/>
<path class="st0" d="M272.4,17.7h-2.6c-0.2,0-0.5,0.2-0.5,0.5v19.1c0,6.2-3.1,9.7-8.8,9.7c-5.6,0-8.8-3.5-8.8-9.7V18.1
	c0-0.3-0.2-0.5-0.5-0.5h-2.6c-0.3,0-0.4,0.2-0.4,0.5v19.2c0,8.2,4.5,12.9,12.3,12.9c7.8,0,12.3-4.7,12.3-12.9V18.1
	C272.9,17.9,272.7,17.7,272.4,17.7z"/>
<path class="st0" d="M299.3,27.2c0,3.7-2.6,6.2-6.3,6.2h-8.1V21h8.1C296.7,21,299.3,23.5,299.3,27.2z M294.8,36.6
	c4.1-0.5,8.1-3.5,8.1-9.3c0-5.7-3.9-9.5-9.7-9.5h-11.4c-0.2,0-0.5,0.2-0.5,0.5v31.1c0,0.3,0.2,0.5,0.5,0.5h2.6
	c0.2,0,0.4-0.2,0.4-0.5V36.8h6l8.4,12.7c0.1,0.1,0.2,0.2,0.4,0.2h3.2c0.2,0,0.3-0.1,0.4-0.2c0.1-0.2,0.1-0.3,0-0.5L294.8,36.6z"/>
<path class="st0" d="M331,17.7h-19.3c-0.2,0-0.5,0.2-0.5,0.5v31.1c0,0.3,0.2,0.5,0.5,0.5H331c0.2,0,0.5-0.2,0.5-0.5v-2.4
	c0-0.3-0.2-0.5-0.5-0.5h-16.3V34.9h16c0.3,0,0.5-0.2,0.5-0.5v-2.4c0-0.3-0.2-0.5-0.5-0.5h-16V21H331c0.2,0,0.5-0.2,0.5-0.5v-2.4
	C331.4,17.9,331.2,17.7,331,17.7z"/>
<path class="st0" d="M350.2,31.2c-4.6-1.2-7.6-2.3-7.6-5.4c0-3,2.8-5.3,6.7-5.3c3.5,0,6.4,1.3,8.4,3.8c0.1,0.1,0.2,0.2,0.3,0.2
	c0.1,0,0.3,0,0.3-0.2l1.7-2c0.1-0.2,0.1-0.4,0-0.6c-2.6-3-6.2-4.5-10.7-4.5c-6.1,0-10.5,3.7-10.5,8.8c0,6,5.4,7.6,10.1,8.9l0.1,0
	c4.7,1.3,8,2.5,8,6.3c0,2.8-2,5.7-7.6,5.7c-4.8,0-7.8-2.7-9.2-4.4c-0.1-0.1-0.2-0.2-0.3-0.2c-0.1,0-0.3,0.1-0.3,0.2l-1.7,2
	c-0.1,0.2-0.1,0.4,0,0.6c2.7,3.3,6.7,5.1,11.5,5.1c8.3,0,11.3-4.8,11.3-9.3C360.8,34.3,355.2,32.7,350.2,31.2z"/>
<path class="st1" d="M447.9,32.1c-1.6,17.3-11.3,31-28.5,31c-17,0-33.2-15.2-33.2-32.6C386.1,12,397.8,0,416.4,0
	C431.6,0,449.6,13.2,447.9,32.1z"/>
</svg>
