<?xml version="1.0" encoding="UTF-8"?>
<svg width="120px" height="40px" viewBox="0 0 120 40" version="1.1" xmlns="http://www.w3.org/2000/svg" xmlns:xlink="http://www.w3.org/1999/xlink">
    <!-- Generator: Sketch 53.1 (72631) - https://sketchapp.com -->
    <title>Qrious Logo</title>
    <desc>Created with Sketch.</desc>
    <g id="Webpages" stroke="none" stroke-width="1" fill="none" fill-rule="evenodd">
        <g id="Contact-Page" transform="translate(-70.000000, -24.000000)" fill="#FFFFFF" fill-rule="nonzero">
            <g id="Group">
                <g id="Nav---Dark">
                    <g id="Qrious-Logo" transform="translate(70.000000, 24.000000)">
                        <path d="M46.2298429,8.27137255 C46.5282723,8.27137255 46.8251309,8.27137255 47.1141361,8.28078431 C47.2561649,8.28753432 47.3672985,8.40545946 47.365445,8.54745098 L47.365445,10.5866667 C47.3657023,10.6605358 47.3349037,10.7311215 47.280553,10.7812257 C47.2262023,10.83133 47.1532901,10.8563523 47.0795812,10.8501961 C46.691623,10.8172549 46.3256545,10.7890196 46.0146597,10.7890196 C41.6638743,10.7890196 38.8774869,14.3701961 38.8774869,19.4164706 L38.8774869,29.7098039 C38.8779049,29.7709601 38.853979,29.8297773 38.810973,29.8733154 C38.767967,29.9168536 38.7094038,29.9415462 38.6481675,29.9419608 L36.7931937,29.9419608 C36.7319574,29.9415462 36.6733943,29.9168536 36.6303883,29.8733154 C36.5873822,29.8297773 36.5634564,29.7709601 36.5638743,29.7098039 L36.5638743,8.69019608 C36.5634557,8.63500938 36.5851144,8.58193928 36.6240417,8.54276829 C36.6629691,8.5035973 36.7159437,8.48156704 36.7712042,8.48156863 L38.6701571,8.48156863 C38.7254176,8.48156704 38.7783922,8.5035973 38.8173195,8.54276829 C38.8562469,8.58193928 38.8779056,8.63500938 38.8774869,8.69019608 L38.8774869,12.3639216 L38.9858639,12.3639216 C40.5502618,9.67529412 43.1010471,8.27137255 46.2298429,8.27137255 Z" id="Shape"></path>
                        <path d="M51.3769634,8.48784314 L52.9994764,8.48784314 C53.179295,8.48870653 53.3246094,8.63453202 53.3246073,8.81411765 L53.3246073,29.6329412 C53.3246073,29.806207 53.1839638,29.9466667 53.0104712,29.9466667 L51.3204188,29.9466667 C51.1469263,29.9466667 51.0062827,29.806207 51.0062827,29.6329412 L51.0062827,8.85647059 C51.0062809,8.65349429 51.1705819,8.48870687 51.373822,8.48784314 M50.2617801,2.06431373 C50.2410185,1.07119576 50.9821806,0.226232495 51.9706806,0.116078431 C52.5100419,0.0598931319 53.0489625,0.226315549 53.4624305,0.576741188 C53.8758986,0.927166828 54.1279833,1.43114329 54.1602094,1.97176471 C54.1767634,2.66724172 53.8205416,3.31870886 53.2257294,3.68076475 C52.6309173,4.04282064 51.8878809,4.06046038 51.2765148,3.72703926 C50.6651487,3.39361813 50.278334,2.75979074 50.2617801,2.06431373" id="Shape"></path>
                        <path d="M100.306806,8.84392157 L100.306806,29.5811765 C100.307644,29.6769888 100.270119,29.7691648 100.202574,29.8372108 C100.135029,29.9052569 100.043062,29.9435331 99.9471204,29.9435294 L98.3528796,29.9435294 C98.2567956,29.9435303 98.1646698,29.905304 98.0968757,29.8373041 C98.0290816,29.7693043 97.9912053,29.6771339 97.991623,29.5811765 L97.991623,25.9733333 L97.9068063,25.9733333 C96.1492147,28.6258824 93.3628272,30.1552941 90.4900524,30.1552941 C85.6209424,30.1552941 82.7104712,27.174902 82.7104712,21.3364706 L82.7104712,8.84392157 C82.7100537,8.74948342 82.7472183,8.65874768 82.813789,8.59167565 C82.8803597,8.52460361 82.9708833,8.48668962 83.065445,8.48627451 L84.6706806,8.48627451 C84.7652424,8.48668962 84.8557659,8.52460361 84.9223366,8.59167565 C84.9889073,8.65874768 85.0260719,8.74948342 85.0256545,8.84392157 L85.0256545,20.627451 C85.0256545,26.0627451 87.1900524,27.9388235 90.8120419,27.9388235 C94.6052356,27.9388235 97.991623,24.4878431 97.991623,19.0964706 L97.991623,8.84392157 C97.9912055,8.74948342 98.0283701,8.65874768 98.0949408,8.59167565 C98.1615116,8.52460361 98.2520351,8.48668962 98.3465969,8.48627451 L99.9534031,8.48627451 C100.149703,8.4879999 100.307679,8.64787239 100.306806,8.84392157" id="Shape"></path>
                        <path d="M112.543979,30.1584314 C109.096335,30.1584314 106.504712,28.9584314 104.557068,27.3098039 C104.427726,27.203298 104.404913,27.0141301 104.505236,26.88 L105.431937,25.5811765 C105.48449,25.5072528 105.566495,25.459648 105.656823,25.4506269 C105.747152,25.4416059 105.836972,25.4720507 105.903141,25.5341176 C107.473822,26.9741176 109.335079,27.9607843 112.518848,27.9607843 C115.702618,27.9607843 117.491623,26.3419608 117.491623,24.2070588 C117.491623,21.8776471 115.027225,21.187451 111.598429,20.0031373 C108.169634,18.8188235 105.315707,17.4368627 105.315707,13.7694118 C105.315707,10.6211765 108.103665,8.29176471 111.981675,8.29176471 C114.180628,8.29176471 116.453403,8.8454902 118.642932,10.5631373 C118.87642,10.7471701 118.927225,11.0803958 118.759162,11.3254902 L118.005236,12.3984314 C117.944867,12.4843355 117.851207,12.5410354 117.747021,12.5547497 C117.642835,12.568464 117.537663,12.5379369 117.457068,12.4705882 C115.54555,10.9160784 113.637173,10.4705882 111.746073,10.4705882 C109.581675,10.4705882 107.65288,11.6564706 107.65288,13.7647059 C107.65288,16.0941176 109.774869,16.7827451 112.347644,17.7113725 C116.805236,19.3066667 119.886911,20.1254902 119.869634,24.3090196 C119.849215,27.414902 117.427225,30.1537255 112.540838,30.1537255 L112.543979,30.1584314 Z" id="Shape"></path>
                        <path d="M68.4816754,10.4737255 C63.6801047,10.4737255 59.773822,14.4047059 59.773822,19.2360784 C59.773822,24.067451 63.6801047,27.9968627 68.4816754,27.9968627 C73.2832461,27.9968627 77.1879581,24.0658824 77.1879581,19.2360784 C77.1879581,14.4062745 73.2816754,10.4737255 68.4816754,10.4737255 M68.4816754,30.1945098 C62.4753927,30.1945098 57.5890052,25.2784314 57.5890052,19.2360784 C57.5890052,13.1937255 62.473822,8.27607843 68.4816754,8.27607843 C74.4895288,8.27607843 79.3727749,13.1921569 79.3727749,19.2360784 C79.3727749,25.28 74.4879581,30.1945098 68.4816754,30.1945098" id="Shape"></path>
                        <path d="M33.3549738,39.9419608 C33.0089808,39.9422293 32.6835299,39.7779691 32.478534,39.4996078 L24.0078534,28.0894118 C23.8061435,27.8199752 23.8594019,27.4385558 24.1272251,27.2345098 C27.2427167,24.9262153 29.2387843,21.4126025 29.6246073,17.5576471 C30.4099476,9.97647059 24.9125654,3.1654902 17.3874346,2.37490196 C13.7576208,1.98329898 10.1228646,3.0683425 7.30366492,5.38509804 C1.40288962,10.2186905 0.503031082,18.8975534 5.28691099,24.8360784 C8.36631317,28.6690141 13.2682008,30.5571423 18.1272251,29.7819608 C18.4162304,29.7364706 18.7036649,29.68 18.9879581,29.6156863 C19.1591287,29.5744572 19.3397935,29.6112324 19.4811518,29.7160784 C20.4628272,30.4643137 20.0481675,31.6439216 19.1764398,31.8243137 C18.9424084,31.8729412 18.7052356,31.9152941 18.4696335,31.9545098 C12.8384258,32.8505778 7.15851667,30.6621748 3.58900524,26.2211765 C-1.95428332,19.3384477 -0.911541387,9.28088336 5.92617801,3.67843137 C9.19230613,0.993833996 13.4030372,-0.264681045 17.6089005,0.186666667 C26.3418848,1.10431373 32.704712,8.99921569 31.7937173,17.785098 C31.4014951,21.7006972 29.5719124,25.3327283 26.6575916,27.9811765 L34.3774869,38.3780392 C34.4950435,38.5339279 34.5381138,38.7335129 34.495288,38.9239216 C34.3287958,39.6156863 33.8371728,39.9356863 33.3549738,39.9356863" id="Shape"></path>
                    </g>
                </g>
            </g>
        </g>
    </g>
</svg>