<?xml version="1.0" encoding="utf-8"?>
<!-- Generator: Adobe Illustrator 24.1.3, SVG Export Plug-In . SVG Version: 6.00 Build 0)  -->
<svg version="1.1" id="Layer_1" xmlns="http://www.w3.org/2000/svg" xmlns:xlink="http://www.w3.org/1999/xlink" x="0px" y="0px"
	 viewBox="0 0 123 45" style="enable-background:new 0 0 123 45;" xml:space="preserve">
<style type="text/css">
	.st0{fill:none;}
	.st1{fill:#EC6608;}
	.st2{fill:#272726;}
</style>
<rect y="0" class="st0" width="122.6" height="45"/>
<g>
	<path class="st1" d="M107.5,0C99-0.1,92.2,6.7,92.1,15.2c-0.1,8.4,6.7,15.3,15.2,15.4c8.4,0.1,15.3-6.7,15.4-15.1v-0.1
		C122.7,6.9,115.9,0,107.5,0z M106.7,21.6h-3.1l-3.4-6.6v6.6h-2.6v-11h3.3l3.2,6.5v-6.5h2.6V21.6z M117.4,13l-5.6,6.2h5.5v2.5h-9.1
		v-2.3l5.7-6.3h-5.5v-2.4h9V13L117.4,13z"/>
	<path class="st2" d="M87.2,40c0,0.2-0.1,0.3-0.3,0.3h-1c-1.1,0-1.7,0.5-1.7,1.5s0.6,1.5,1.7,1.5c0.5,0,1-0.2,1.4-0.6v0.5h1V40
		c0-1-0.7-1.7-2-1.7c-0.7,0-1.4,0.2-1.9,0.7l0.5,0.8c0.4-0.3,0.8-0.5,1.3-0.5C86.7,39.2,87.1,39.5,87.2,40z M86,42.5
		c-0.6,0-0.8-0.3-0.8-0.7s0.3-0.7,0.8-0.7h0.6c0.2,0,0.3,0,0.5-0.1v0.4c0,0.6-0.4,1-0.9,1.1C86.2,42.5,86.2,42.5,86,42.5L86,42.5z
		 M82.5,40.8c0,0.8-0.7,1.4-1.5,1.4s-1.4-0.7-1.4-1.5s0.7-1.4,1.5-1.4S82.5,39.9,82.5,40.8C82.5,40.6,82.5,40.7,82.5,40.8z
		 M78.5,40.8c0,1.4,1.1,2.5,2.5,2.6c1.4,0,2.5-1.1,2.6-2.5c0-1.4-1.1-2.5-2.5-2.6C79.8,38.3,78.6,39.3,78.5,40.8
		C78.5,40.6,78.5,40.7,78.5,40.8z M78.1,38.3h-0.4c-0.6,0-1.1,0.3-1.3,0.9v-0.8h-1v4.8h1v-2.4c0-1.1,0.4-1.5,1.1-1.5H78L78.1,38.3z
		 M73.2,40c0,0.2-0.1,0.3-0.3,0.3h-1c-1.1,0-1.7,0.5-1.7,1.5s0.6,1.5,1.7,1.5c0.5,0,1-0.2,1.4-0.6v0.5h1V40c0-1-0.7-1.7-2-1.7
		c-0.7,0-1.4,0.2-1.9,0.7l0.5,0.8c0.4-0.3,0.8-0.5,1.3-0.5C72.8,39.2,73.2,39.5,73.2,40z M72.1,42.5c-0.6,0-0.8-0.3-0.8-0.7
		s0.3-0.7,0.8-0.7h0.6c0.2,0,0.3,0,0.5-0.1v0.4c0,0.6-0.4,1-0.9,1.1C72.3,42.5,72.3,42.5,72.1,42.5L72.1,42.5z M67.3,39.2
		c0.7,0,1.2,0.5,1.2,1.2H66C66.1,39.7,66.6,39.2,67.3,39.2z M69.7,41.1c0-2-1.2-2.8-2.4-2.8c-1.3,0-2.4,1-2.4,2.3c0,0.1,0,0.1,0,0.2
		c0,1.4,1.1,2.5,2.5,2.5c1,0,1.8-0.6,2.2-1.4h-1.2c-0.3,0.4-0.7,0.6-1.1,0.5c-0.7,0-1.3-0.6-1.3-1.3H69.7z M62.2,36.5v1.9h-0.8v0.9
		h0.8v2.9c0,0.9,0.7,1,1.3,1c0.4,0,0.9,0,0.9,0v-0.9c-0.2,0-0.4,0-0.6,0s-0.5-0.1-0.5-0.4v-2.6h1.1v-0.9h-1.1v-1.9H62.2z M60,40.8
		c0,0.8-0.7,1.4-1.5,1.4s-1.4-0.7-1.4-1.5s0.7-1.4,1.5-1.4C59.3,39.3,60,39.9,60,40.8C60,40.7,60,40.7,60,40.8z M56,40.8
		c0,1.4,1.1,2.5,2.5,2.6c1.4,0,2.5-1.1,2.6-2.5c0-1.4-1.1-2.5-2.5-2.6C57.2,38.3,56.1,39.3,56,40.8C56,40.6,56,40.7,56,40.8z
		 M53.5,39.9h-1.9l1-3L53.5,39.9z M53.2,35.7h-1.4l-2.4,7.4h1.2l0.7-2.3h2.4l0.8,2.3h1.2L53.2,35.7z M46,40c0,0.2-0.1,0.3-0.3,0.3
		h-1c-1.1,0-1.7,0.5-1.7,1.5s0.6,1.5,1.7,1.5c0.5,0,1-0.2,1.3-0.6v0.5h1V40c0-1-0.7-1.7-2-1.7c-0.7,0-1.4,0.2-1.9,0.6l0.5,0.8
		c0.4-0.3,0.9-0.5,1.4-0.5C45.6,39.2,46,39.4,46,40z M44.9,42.5c-0.6,0-0.8-0.3-0.8-0.7s0.3-0.7,0.8-0.7h0.6c0.2,0,0.3,0,0.5-0.1
		v0.4c0,0.6-0.4,1-0.9,1.1C45.1,42.5,45.1,42.5,44.9,42.5L44.9,42.5z M38.1,40.8c0-0.8,0.7-1.4,1.5-1.4s1.4,0.7,1.4,1.5
		s-0.7,1.4-1.5,1.4S38.1,41.7,38.1,40.8L38.1,40.8z M41,38.4v0.7c-0.4-0.5-1-0.9-1.6-0.8c-1.4,0-2.5,1.1-2.5,2.5s1.1,2.5,2.5,2.5
		c0.6,0,1.2-0.3,1.6-0.8v1.2c0,0.4-0.3,0.5-0.6,0.5h-1.8V45h2c0.7,0,1.4-0.5,1.4-1.3c0-0.1,0-0.1,0-0.2v-5.2L41,38.4z M32.9,38.4h-1
		v4.8h1v-3.3c0.3-0.4,0.8-0.7,1.3-0.7s0.9,0.3,1,0.8c0,0.1,0,0.1,0,0.2v3h1V40c0.1-0.9-0.6-1.7-1.5-1.8h-0.3c-0.6,0-1.2,0.3-1.6,0.8
		L32.9,38.4z M29.6,40c0,0.2-0.1,0.3-0.3,0.3h-1c-1.1,0-1.7,0.5-1.7,1.5s0.6,1.5,1.7,1.5c0.5,0,1-0.2,1.4-0.6v0.5h1V40
		c0-1-0.7-1.7-2-1.7c-0.7,0-1.4,0.2-1.9,0.7l0.5,0.8c0.4-0.3,0.8-0.5,1.3-0.5C29.2,39.2,29.6,39.5,29.6,40z M28.5,42.5
		c-0.6,0-0.8-0.3-0.8-0.7s0.3-0.7,0.8-0.7h0.6c0.2,0,0.3,0,0.5-0.1v0.4c0,0.6-0.4,1-0.9,1.1c0,0,0,0-0.1,0H28.5z M26.2,38.3h-0.4
		c-0.6,0-1.1,0.3-1.3,0.8v-0.8h-1v4.8h1v-2.4c0-1.1,0.4-1.5,1.1-1.5h0.5L26.2,38.3z M20.2,43.3c1.1,0.1,2-0.6,2.1-1.7
		c0-0.1,0-0.1,0-0.2v-3h-1v2.9c0.1,0.5-0.3,1-0.9,1.1h-0.2c-0.5,0.1-1-0.3-1.1-0.9c0-0.1,0-0.1,0-0.2v-2.9H18v3c0,1.1,0.9,1.9,2,1.9
		C20.1,43.3,20.2,43.3,20.2,43.3z M15.9,40c0,0.2-0.1,0.3-0.3,0.3h-1c-1.1,0-1.7,0.5-1.7,1.5s0.6,1.5,1.7,1.5c0.5,0,1-0.2,1.4-0.6
		v0.5h1V40c0-1-0.7-1.7-2-1.7c-0.7,0-1.4,0.2-1.9,0.7l0.5,0.8c0.4-0.3,0.8-0.5,1.3-0.5C15.5,39.2,15.9,39.5,15.9,40z M14.8,42.5
		c-0.6,0-0.8-0.3-0.8-0.7s0.3-0.7,0.8-0.7h0.6c0.2,0,0.3,0,0.5-0.1v0.4c0,0.6-0.4,1-0.9,1.1C15,42.5,15,42.5,14.8,42.5L14.8,42.5z
		 M10.2,36.4v1.9H9.4v0.9h0.8v2.9c0,0.9,0.7,1,1.3,1c0.4,0,0.9,0,0.9,0v-0.9c-0.2,0-0.4,0-0.6,0s-0.5-0.1-0.5-0.4v-2.6h1.1v-0.9
		h-1.1v-1.9H10.2z M7.8,40c0,0.2-0.1,0.3-0.3,0.3h-1c-1.1,0-1.7,0.5-1.7,1.5s0.6,1.5,1.7,1.5c0.5,0,1-0.2,1.4-0.6v0.5h1V40
		c0-1-0.7-1.7-2-1.7c-0.7,0-1.4,0.2-1.9,0.6l0.5,0.8c0.4-0.3,0.8-0.5,1.3-0.5S7.7,39.5,7.8,40z M6.6,42.5c-0.6,0-0.8-0.3-0.8-0.7
		s0.3-0.7,0.8-0.7h0.6c0.2,0,0.3,0,0.5-0.1v0.4c0,0.6-0.4,1-0.9,1.1C6.8,42.5,6.8,42.5,6.6,42.5L6.6,42.5z M0,35.7v1h2.2v6.4h1.1
		v-6.5h2.2v-1L0,35.7z M87.9,13.2c-2.1-1.9-4.9-2.9-7.8-2.9c-4.6,0-7.5,2.9-7.5,6c0,2.6,1.3,4.7,4.5,5.7l3.3,1
		c1.6,0.5,2.2,0.9,2.2,1.9c0,0.8-0.8,1.4-2.1,1.4c-2.1-0.2-4.1-1-5.7-2.4l-2.9,3.8c2.4,2.1,5.4,3.1,8.5,3c5.3,0,7.7-3.3,7.7-6.2
		c0-2.6-1.3-4.7-5.3-6l-3.2-1c-1-0.4-1.4-0.8-1.4-1.5c0-0.7,0.5-1.3,1.9-1.3c1.8,0,3.5,0.8,4.8,2L87.9,13.2z M60,3.4v7.4h-3v4.7h3
		v10.6c0,3.9,2.8,4.4,5.6,4.4c1.6,0,4.2-0.3,4.2-0.3v-4.7c0,0-1.1,0.1-2.5,0.1c-0.8,0-1.8-0.2-1.8-1.4v-8.8h4.2v-4.6h-4.2V3.4H60z
		 M25,3.4v7.4h-3v4.7h3v10.6c0,3.9,2.8,4.4,5.6,4.4c1.6,0,4.2-0.3,4.2-0.3v-4.7c0,0-1.1,0.1-2.5,0.1c-0.9,0-1.8-0.2-1.8-1.4v-8.8
		h4.2v-4.6h-4.2V3.4H25z M21,4.2C18.2,1.7,14.7,0,11.3,0C6.1,0,1.5,3.2,1.5,8.4c0,3.7,2.5,6.4,6.4,8.3l2.1,1
		c2.8,1.3,4.6,2.5,4.6,4.5c0,1.8-1.6,3.2-4.1,3.2c-2.8-0.2-5.3-1.5-7.2-3.5l-3.2,4.4c2.8,2.9,6.6,4.5,10.6,4.5
		c6.5,0,10.2-4.3,10.2-8.8s-2.9-7-7.5-9.1l-2.5-1.1c-2.4-1.1-3.2-2.2-3.2-3.5c0-1.8,1.8-2.8,3.7-2.8s4.4,1.3,6.2,3.1L21,4.2z
		 M48.8,21.9v1.4c0,2.4-1.8,3.4-3.7,3.4c-1.7,0-2.7-1-2.7-2.3s1-2.1,2.7-2.1h2.1C47.7,22.4,48.3,22.2,48.8,21.9z M56.9,30.5v-4.6
		c0,0,0.1,0-1.2,0c-0.8,0-1.5-0.2-1.5-1.4v-7c0-5.1-4-7.2-8.4-7.2c-2.9,0.1-5.8,0.9-8.3,2.4l2.1,4.1c1.8-1.1,3.8-1.7,5.8-1.8
		c2.1,0,3.2,0.9,3.2,2.3v0.2c0,0.7-0.4,1.1-1.3,1.1h-3.8c-4.3,0-7,2.3-7,6c0,3.2,2.7,6.1,6.7,6.1c2.2,0,4.4-0.8,5.4-2.3l0.2-0.4
		c0.7,2.4,3,2.7,5.3,2.7C55.2,30.8,56,30.7,56.9,30.5z"/>
</g>
</svg>
