<?xml version="1.0" encoding="utf-8"?>
<!-- Generator: Adobe Illustrator 23.0.4, SVG Export Plug-In . SVG Version: 6.00 Build 0)  -->
<svg version="1.1" id="Layer_1" xmlns="http://www.w3.org/2000/svg" xmlns:xlink="http://www.w3.org/1999/xlink" x="0px" y="0px"
	 viewBox="0 0 311 114" style="enable-background:new 0 0 311 114;" xml:space="preserve">
<style type="text/css">
	.st0{fill:#FFFFFF;}
</style>
<g>
	<path class="st0" d="M271.8,0c-21.5-0.3-38.7,17-38.9,38.5c-0.3,21.3,16.9,38.8,38.4,39c21.2,0.3,38.7-17,38.9-38.3V39
		C310.2,17.5,293,0,271.8,0z M269.8,54.7h-7.8L253.4,38v16.7h-6.6V26.9h8.3l8.1,16.5V26.9h6.6V54.7z M296.8,32.9l-14.2,15.7h13.9V55
		h-23v-5.8l14.4-16h-13.9v-6.1h22.8V32.9z"/>
	<path class="st0" d="M220.5,101.3c0,0.5-0.3,0.8-0.8,0.8h-2.5c-2.8,0-4.3,1.3-4.3,3.8c0,2.5,1.5,3.8,4.3,3.8c1.3,0,2.5-0.5,3.5-1.5
		v1.3h2.5v-8.1c0-2.5-1.8-4.3-5.1-4.3c-1.8,0-3.5,0.5-4.8,1.8l1.3,2c1-0.8,2-1.3,3.3-1.3C219.2,99.3,220.2,100.1,220.5,101.3z
		 M217.4,107.7c-1.5,0-2-0.8-2-1.8c0-1,0.8-1.8,2-1.8h1.5c0.5,0,0.8,0,1.3-0.3v1c0,1.5-1,2.5-2.3,2.8c0,0,0,0-0.3,0H217.4z
		 M208.6,103.4c0,2-1.8,3.5-3.8,3.5c-2,0-3.5-1.8-3.5-3.8c0-2,1.8-3.5,3.8-3.5c2,0,3.5,1.5,3.5,3.5
		C208.6,102.9,208.6,103.1,208.6,103.4z M198.5,103.4c0,3.5,2.8,6.3,6.3,6.6c3.5,0,6.3-2.8,6.6-6.3c0-3.5-2.8-6.3-6.3-6.6
		c-3.3,0-6.3,2.5-6.3,6.1C198.5,102.9,198.5,103.1,198.5,103.4z M197.5,97h-1c-1.5,0-2.8,0.8-3.3,2.3v-2h-2.5v12.2h2.5v-6.1
		c0-2.8,1-3.8,2.8-3.8h1.3L197.5,97z M185.1,101.3c0,0.5-0.3,0.8-0.8,0.8h-2.5c-2.8,0-4.3,1.3-4.3,3.8c0,2.5,1.5,3.8,4.3,3.8
		c1.3,0,2.5-0.5,3.5-1.5v1.3h2.5v-8.1c0-2.5-1.8-4.3-5.1-4.3c-1.8,0-3.5,0.5-4.8,1.8l1.3,2c1-0.8,2-1.3,3.3-1.3
		C184.1,99.3,185.1,100.1,185.1,101.3z M182.3,107.7c-1.5,0-2-0.8-2-1.8c0-1,0.8-1.8,2-1.8h1.5c0.5,0,0.8,0,1.3-0.3v1
		c0,1.5-1,2.5-2.3,2.8c0,0,0,0-0.3,0H182.3z M170.2,99.3c1.8,0,3,1.3,3,3h-6.3C167.1,100.6,168.4,99.3,170.2,99.3z M176.2,104.1
		c0-5.1-3-7.1-6.1-7.1c-3.3,0-6.1,2.5-6.1,5.8c0,0.3,0,0.3,0,0.5c0,3.5,2.8,6.3,6.3,6.3c2.5,0,4.6-1.5,5.6-3.5h-3
		c-0.8,1-1.8,1.5-2.8,1.3c-1.8,0-3.3-1.5-3.3-3.3H176.2z M157.3,92.5v4.8h-2v2.3h2v7.3c0,2.3,1.8,2.5,3.3,2.5c1,0,2.3,0,2.3,0v-2.3
		c-0.5,0-1,0-1.5,0c-0.5,0-1.3-0.3-1.3-1v-6.6h2.8v-2.3h-2.8v-4.8H157.3z M151.7,103.4c0,2-1.8,3.5-3.8,3.5c-2,0-3.5-1.8-3.5-3.8
		c0-2,1.8-3.5,3.8-3.5C149.9,99.6,151.7,101.1,151.7,103.4C151.7,103.1,151.7,103.1,151.7,103.4z M141.6,103.4
		c0,3.5,2.8,6.3,6.3,6.6c3.5,0,6.3-2.8,6.6-6.3c0-3.5-2.8-6.3-6.3-6.6c-3.5,0-6.3,2.5-6.3,6.1C141.6,102.9,141.6,103.1,141.6,103.4z
		 M135.3,101.1h-4.8l2.5-7.6L135.3,101.1z M134.5,90.4H131l-6.1,18.7h3l1.8-5.8h6.1l2,5.8h3L134.5,90.4z M116.3,101.3
		c0,0.5-0.3,0.8-0.8,0.8H113c-2.8,0-4.3,1.3-4.3,3.8c0,2.5,1.5,3.8,4.3,3.8c1.3,0,2.5-0.5,3.3-1.5v1.3h2.5v-8.1
		c0-2.5-1.8-4.3-5.1-4.3c-1.8,0-3.5,0.5-4.8,1.5l1.3,2c1-0.8,2.3-1.3,3.5-1.3C115.3,99.3,116.3,99.8,116.3,101.3z M113.5,107.7
		c-1.5,0-2-0.8-2-1.8c0-1,0.8-1.8,2-1.8h1.5c0.5,0,0.8,0,1.3-0.3v1c0,1.5-1,2.5-2.3,2.8c0,0,0,0-0.3,0H113.5z M96.3,103.4
		c0-2,1.8-3.5,3.8-3.5c2,0,3.5,1.8,3.5,3.8c0,2-1.8,3.5-3.8,3.5c-2,0-3.5-1.5-3.5-3.5V103.4z M103.7,97.3v1.8c-1-1.3-2.5-2.3-4-2
		c-3.5,0-6.3,2.8-6.3,6.3c0,3.5,2.8,6.3,6.3,6.3c1.5,0,3-0.8,4-2v3c0,1-0.8,1.3-1.5,1.3h-4.6v2h5.1c1.8,0,3.5-1.3,3.5-3.3
		c0-0.3,0-0.3,0-0.5V97L103.7,97.3z M83.2,97.3h-2.5v12.2h2.5v-8.4c0.8-1,2-1.8,3.3-1.8c1.3,0,2.3,0.8,2.5,2c0,0.3,0,0.3,0,0.5v7.6
		h2.5v-8.1c0.3-2.3-1.5-4.3-3.8-4.6H87c-1.5,0-3,0.8-4,2L83.2,97.3z M74.8,101.3c0,0.5-0.3,0.8-0.8,0.8h-2.5c-2.8,0-4.3,1.3-4.3,3.8
		c0,2.5,1.5,3.8,4.3,3.8c1.3,0,2.5-0.5,3.5-1.5v1.3h2.5v-8.1c0-2.5-1.8-4.3-5.1-4.3c-1.8,0-3.5,0.5-4.8,1.8l1.3,2
		c1-0.8,2-1.3,3.3-1.3C73.8,99.3,74.8,100.1,74.8,101.3z M72.1,107.7c-1.5,0-2-0.8-2-1.8c0-1,0.8-1.8,2-1.8h1.5c0.5,0,0.8,0,1.3-0.3
		v1c0,1.5-1,2.5-2.3,2.8c0,0,0,0-0.3,0H72.1z M66.2,97h-1c-1.5,0-2.8,0.8-3.3,2v-2h-2.5v12.2h2.5v-6.1c0-2.8,1-3.8,2.8-3.8H66
		L66.2,97z M51.1,109.7c2.8,0.3,5.1-1.5,5.3-4.3c0-0.3,0-0.3,0-0.5v-7.6h-2.5v7.3c0.3,1.3-0.8,2.5-2.3,2.8h-0.5
		c-1.3,0.3-2.5-0.8-2.8-2.3c0-0.3,0-0.3,0-0.5v-7.3h-2.8v7.6c0,2.8,2.3,4.8,5.1,4.8C50.8,109.7,51.1,109.7,51.1,109.7z M40.2,101.3
		c0,0.5-0.3,0.8-0.8,0.8h-2.5c-2.8,0-4.3,1.3-4.3,3.8c0,2.5,1.5,3.8,4.3,3.8c1.3,0,2.5-0.5,3.5-1.5v1.3H43v-8.1
		c0-2.5-1.8-4.3-5.1-4.3c-1.8,0-3.5,0.5-4.8,1.8l1.3,2c1-0.8,2-1.3,3.3-1.3C39.2,99.3,40.2,100.1,40.2,101.3z M37.4,107.7
		c-1.5,0-2-0.8-2-1.8c0-1,0.8-1.8,2-1.8h1.5c0.5,0,0.8,0,1.3-0.3v1c0,1.5-1,2.5-2.3,2.8c0,0,0,0-0.3,0H37.4z M25.8,92.2V97h-2v2.3h2
		v7.3c0,2.3,1.8,2.5,3.3,2.5c1,0,2.3,0,2.3,0v-2.3c-0.5,0-1,0-1.5,0c-0.5,0-1.3-0.3-1.3-1v-6.6h2.8V97h-2.8v-4.8H25.8z M19.7,101.3
		c0,0.5-0.3,0.8-0.8,0.8h-2.5c-2.8,0-4.3,1.3-4.3,3.8c0,2.5,1.5,3.8,4.3,3.8c1.3,0,2.5-0.5,3.5-1.5v1.3h2.5v-8.1
		c0-2.5-1.8-4.3-5.1-4.3c-1.8,0-3.5,0.5-4.8,1.5l1.3,2c1-0.8,2-1.3,3.3-1.3S19.5,100.1,19.7,101.3z M16.7,107.7c-1.5,0-2-0.8-2-1.8
		c0-1,0.8-1.8,2-1.8h1.5c0.5,0,0.8,0,1.3-0.3v1c0,1.5-1,2.5-2.3,2.8c0,0,0,0-0.3,0H16.7z M0,90.4V93h5.6v16.2h2.8V92.7h5.6v-2.5
		L0,90.4z M222.3,33.4c-5.3-4.8-12.4-7.3-19.7-7.3c-11.6,0-19,7.3-19,15.2c0,6.6,3.3,11.9,11.4,14.4l8.3,2.5c4,1.3,5.6,2.3,5.6,4.8
		c0,2-2,3.5-5.3,3.5c-5.3-0.5-10.4-2.5-14.4-6.1l-7.3,9.6c6.1,5.3,13.7,7.9,21.5,7.6c13.4,0,19.5-8.4,19.5-15.7
		c0-6.6-3.3-11.9-13.4-15.2l-8.1-2.5c-2.5-1-3.5-2-3.5-3.8c0-1.8,1.3-3.3,4.8-3.3c4.6,0,8.8,2,12.1,5.1L222.3,33.4z M151.7,8.6v18.7
		h-7.6v11.9h7.6v26.9c0,9.9,7.1,11.1,14.2,11.1c4,0,10.6-0.8,10.6-0.8V64.6c0,0-2.8,0.3-6.3,0.3c-2,0-4.6-0.5-4.6-3.5V39h10.6V27.4
		h-10.6V8.6H151.7z M63.2,8.6v18.7h-7.6v11.9h7.6v26.9c0,9.9,7.1,11.1,14.2,11.1c4,0,10.6-0.8,10.6-0.8V64.6c0,0-2.8,0.3-6.3,0.3
		c-2.3,0-4.6-0.5-4.6-3.5V39h10.6V27.4H77.1V8.6H63.2z M53.1,10.6C46,4.3,37.2,0,28.6,0C15.4,0,3.8,8.1,3.8,21.3
		c0,9.4,6.3,16.2,16.2,21l5.3,2.5c7.1,3.3,11.6,6.3,11.6,11.4c0,4.6-4,8.1-10.4,8.1c-7.1-0.5-13.4-3.8-18.2-8.9L0.3,66.6
		C7.3,74,16.9,78,27.1,78c16.4,0,25.8-10.9,25.8-22.3s-7.3-17.7-19-23.1l-6.3-2.8c-6.1-2.8-8.1-5.6-8.1-8.9c0-4.6,4.6-7.1,9.4-7.1
		s11.1,3.3,15.7,7.9L53.1,10.6z M123.4,55.5V59c0,6.1-4.6,8.6-9.4,8.6c-4.3,0-6.8-2.5-6.8-5.8c0-3.3,2.5-5.3,6.8-5.3h5.3
		C120.6,56.7,122.1,56.2,123.4,55.5z M143.9,77.3V65.6c0,0,0.3,0-3,0c-2,0-3.8-0.5-3.8-3.5V44.3c0-12.9-10.1-18.2-21.2-18.2
		c-7.3,0.3-14.7,2.3-21,6.1l5.3,10.4c4.6-2.8,9.6-4.3,14.7-4.6c5.3,0,8.1,2.3,8.1,5.8v0.5c0,1.8-1,2.8-3.3,2.8H110
		c-10.9,0-17.7,5.8-17.7,15.2c0,8.1,6.8,15.5,16.9,15.5c5.6,0,11.1-2,13.7-5.8l0.5-1c1.8,6.1,7.6,6.8,13.4,6.8
		C139.6,78,141.6,77.8,143.9,77.3z"/>
</g>
</svg>
