<svg width="386" height="386" viewBox="0 0 386 386" fill="none" xmlns="http://www.w3.org/2000/svg">
<circle r="189.5" transform="matrix(0.999936 -0.0112802 -0.0112802 -0.999936 193.001 193)" stroke="white" stroke-opacity="0.25"/>
<path fill-rule="evenodd" clip-rule="evenodd" d="M334.466 67.661C299.363 28.0759 247.926 3.36807 190.869 4.01172C86.4938 5.18917 2.8355 90.7565 4.01295 195.132C5.1904 299.507 90.7577 383.165 195.133 381.988C299.508 380.81 383.166 295.243 381.989 190.868C381.621 158.292 373.033 127.733 358.219 101.143L358.752 100.047C373.854 126.92 382.617 157.858 382.989 190.856C384.173 295.784 300.072 381.804 195.144 382.988C90.2167 384.171 4.19669 300.07 3.01301 195.143C1.82933 90.2155 85.9303 4.19547 190.858 3.01179C248.283 2.36397 300.046 27.2612 335.338 67.137L334.593 67.3945C334.555 67.4736 334.512 67.5634 334.466 67.661Z" fill="white"/>
<path d="M313.599 68.0249L334.811 67.7857L334.571 46.5738" stroke="white"/>
</svg>
