<svg width="380" height="380" viewBox="0 0 380 380" fill="none" xmlns="http://www.w3.org/2000/svg">
<circle cx="190" cy="190" r="189.5" stroke="white" stroke-opacity="0.25"/>
<path fill-rule="evenodd" clip-rule="evenodd" d="M332.87 313.735C298.215 353.714 247.061 379 190 379C85.6182 379 1 294.382 1 190C1 85.6182 85.6182 1 190 1C294.382 1 379 85.6182 379 190C379 222.578 370.757 253.231 356.244 279.987L356.789 281.078C371.587 254.035 380 223 380 190C380 85.0659 294.934 0 190 0C85.0659 0 0 85.0659 0 190C0 294.934 85.0659 380 190 380C247.429 380 298.908 354.52 333.747 314.249L333 314C332.961 313.921 332.917 313.832 332.87 313.735Z" fill="white"/>
<path d="M311.999 313.607H333.212V334.82" stroke="white"/>
</svg>
