<?xml version="1.0" encoding="utf-8"?>
<!-- Generator: Adobe Illustrator 24.1.3, SVG Export Plug-In . SVG Version: 6.00 Build 0)  -->
<svg version="1.1" id="Layer_1" xmlns="http://www.w3.org/2000/svg" xmlns:xlink="http://www.w3.org/1999/xlink" x="0px" y="0px"
	 viewBox="0 0 100 100" style="enable-background:new 0 0 100 100;" xml:space="preserve">
<style type="text/css">
	.st0{fill:#FFFFFF;}
</style>
<path class="st0" d="M40.5,51.1c-0.2,0-0.4,0-0.5-0.1L21,39.7c-0.3-0.2-0.5-0.5-0.5-0.9c0-0.4,0.2-0.7,0.5-0.9l18-10l-18-9.6
	c-0.3-0.2-0.5-0.5-0.5-0.9c0-0.4,0.2-0.7,0.5-0.9L40,5c0.3-0.2,0.7-0.2,1,0l38,22c0.5,0.3,0.6,0.9,0.4,1.4c-0.1,0.2-0.2,0.3-0.4,0.4
	L41,51C40.8,51.1,40.7,51.1,40.5,51.1z M23.5,38.8l17,10.1l36-21L40.5,7l-17,10.4L41.6,27c0.5,0.3,0.7,0.9,0.4,1.4
	c-0.1,0.2-0.2,0.3-0.4,0.4L23.5,38.8z"/>
<path class="st0" d="M40.5,95.1c-0.6,0-1-0.4-1-1v-44c0-0.6,0.4-1,1-1s1,0.4,1,1v42.3l36-20.8V27.9c0-0.6,0.4-1,1-1s1,0.4,1,1v44.1
	c0,0.4-0.2,0.7-0.5,0.9L41,95C40.8,95.1,40.7,95.1,40.5,95.1z"/>
<path class="st0" d="M40.5,95.1c-0.2,0-0.4,0-0.5-0.1L21,83.8c-0.3-0.2-0.5-0.5-0.5-0.9V17.5c0-0.6,0.4-1,1-1s1,0.4,1,1v64.9
	L41,93.2c0.5,0.3,0.6,0.9,0.4,1.4C41.2,94.9,40.9,95.1,40.5,95.1L40.5,95.1z"/>
</svg>
