<svg width="1046" height="386" viewBox="0 0 1046 386" fill="none" xmlns="http://www.w3.org/2000/svg">
<path d="M556.867 114.658C555.092 133.854 544.236 149 525.072 149C506.059 149 488 132.121 488 112.825C488 92.3635 500.983 79 521.722 79C538.708 79.0167 558.827 93.5965 556.867 114.658Z" fill="#DF6F38"/>
<circle cx="190" cy="193" r="189.5" stroke="white" stroke-opacity="0.25"/>
<path fill-rule="evenodd" clip-rule="evenodd" d="M332.87 316.735C298.215 356.714 247.061 382 190 382C85.6182 382 1 297.382 1 193C1 88.6182 85.6182 4 190 4C294.382 4 379 88.6182 379 193C379 225.578 370.757 256.231 356.244 282.987L356.789 284.078C371.587 257.035 380 226 380 193C380 88.0659 294.934 3 190 3C85.0659 3 0 88.0659 0 193C0 297.934 85.0659 383 190 383C247.429 383 298.908 357.52 333.747 317.249L333 317C332.961 316.921 332.917 316.832 332.87 316.735Z" fill="white"/>
<path d="M311.999 316.607H333.212V337.82" stroke="white"/>
<circle r="189.5" transform="matrix(0.999936 -0.0112802 -0.0112802 -0.999936 523.001 193)" stroke="white" stroke-opacity="0.25"/>
<path fill-rule="evenodd" clip-rule="evenodd" d="M664.466 67.661C629.363 28.0759 577.926 3.36807 520.869 4.01172C416.494 5.18917 332.836 90.7565 334.013 195.132C335.19 299.507 420.758 383.165 525.133 381.988C629.508 380.81 713.166 295.243 711.989 190.868C711.621 158.292 703.033 127.733 688.219 101.143L688.752 100.047C703.854 126.92 712.617 157.858 712.989 190.856C714.173 295.784 630.072 381.804 525.144 382.988C420.217 384.171 334.197 300.07 333.013 195.143C331.829 90.2155 415.93 4.19547 520.858 3.01179C578.283 2.36397 630.046 27.2612 665.338 67.137L664.593 67.3945C664.555 67.4736 664.512 67.5634 664.466 67.661Z" fill="white"/>
<path d="M643.599 68.0249L664.811 67.7857L664.571 46.5738" stroke="white"/>
<circle cx="856" cy="193" r="189.5" stroke="white"/>
<path d="M129.652 187.612C129.652 188.881 129.346 190.071 128.734 191.182C128.145 192.293 127.204 193.188 125.912 193.868C124.643 194.548 123.033 194.888 121.084 194.888H117.106V204H112.346V180.268H121.084C122.92 180.268 124.484 180.585 125.776 181.22C127.068 181.855 128.031 182.727 128.666 183.838C129.323 184.949 129.652 186.207 129.652 187.612ZM120.88 191.046C122.195 191.046 123.169 190.751 123.804 190.162C124.439 189.55 124.756 188.7 124.756 187.612C124.756 185.3 123.464 184.144 120.88 184.144H117.106V191.046H120.88ZM145.272 204L140.036 194.752H137.792V204H133.032V180.268H141.94C143.776 180.268 145.34 180.597 146.632 181.254C147.924 181.889 148.887 182.761 149.522 183.872C150.179 184.96 150.508 186.184 150.508 187.544C150.508 189.108 150.054 190.525 149.148 191.794C148.241 193.041 146.892 193.902 145.102 194.378L150.78 204H145.272ZM137.792 191.182H141.77C143.062 191.182 144.025 190.876 144.66 190.264C145.294 189.629 145.612 188.757 145.612 187.646C145.612 186.558 145.294 185.719 144.66 185.13C144.025 184.518 143.062 184.212 141.77 184.212H137.792V191.182ZM165.829 204.238C163.607 204.238 161.567 203.717 159.709 202.674C157.85 201.631 156.377 200.192 155.289 198.356C154.201 196.497 153.657 194.401 153.657 192.066C153.657 189.754 154.201 187.68 155.289 185.844C156.377 183.985 157.85 182.535 159.709 181.492C161.567 180.449 163.607 179.928 165.829 179.928C168.073 179.928 170.113 180.449 171.949 181.492C173.807 182.535 175.269 183.985 176.335 185.844C177.423 187.68 177.967 189.754 177.967 192.066C177.967 194.401 177.423 196.497 176.335 198.356C175.269 200.192 173.807 201.631 171.949 202.674C170.09 203.717 168.05 204.238 165.829 204.238ZM165.829 199.988C167.257 199.988 168.515 199.671 169.603 199.036C170.691 198.379 171.541 197.449 172.153 196.248C172.765 195.047 173.071 193.653 173.071 192.066C173.071 190.479 172.765 189.097 172.153 187.918C171.541 186.717 170.691 185.799 169.603 185.164C168.515 184.529 167.257 184.212 165.829 184.212C164.401 184.212 163.131 184.529 162.021 185.164C160.933 185.799 160.083 186.717 159.471 187.918C158.859 189.097 158.553 190.479 158.553 192.066C158.553 193.653 158.859 195.047 159.471 196.248C160.083 197.449 160.933 198.379 162.021 199.036C163.131 199.671 164.401 199.988 165.829 199.988ZM194.972 191.828C196.309 192.077 197.409 192.746 198.27 193.834C199.131 194.922 199.562 196.169 199.562 197.574C199.562 198.843 199.245 199.965 198.61 200.94C197.998 201.892 197.103 202.64 195.924 203.184C194.745 203.728 193.351 204 191.742 204H181.508V180.268H191.3C192.909 180.268 194.292 180.529 195.448 181.05C196.627 181.571 197.511 182.297 198.1 183.226C198.712 184.155 199.018 185.209 199.018 186.388C199.018 187.771 198.644 188.927 197.896 189.856C197.171 190.785 196.196 191.443 194.972 191.828ZM186.268 190.06H190.62C191.753 190.06 192.626 189.811 193.238 189.312C193.85 188.791 194.156 188.054 194.156 187.102C194.156 186.15 193.85 185.413 193.238 184.892C192.626 184.371 191.753 184.11 190.62 184.11H186.268V190.06ZM191.062 200.124C192.218 200.124 193.113 199.852 193.748 199.308C194.405 198.764 194.734 197.993 194.734 196.996C194.734 195.976 194.394 195.183 193.714 194.616C193.034 194.027 192.116 193.732 190.96 193.732H186.268V200.124H191.062ZM208.116 200.226H215.936V204H203.356V180.268H208.116V200.226ZM223.721 184.11V190.06H231.711V193.834H223.721V200.124H232.731V204H218.961V180.234H232.731V184.11H223.721ZM262.931 180.268V204H258.171V188.564L251.813 204H248.209L241.817 188.564V204H237.057V180.268H242.463L250.011 197.914L257.559 180.268H262.931Z" fill="white"/>
<path d="M486.642 180.268C489.135 180.268 491.323 180.755 493.204 181.73C495.108 182.705 496.57 184.099 497.59 185.912C498.633 187.703 499.154 189.788 499.154 192.168C499.154 194.548 498.633 196.633 497.59 198.424C496.57 200.192 495.108 201.563 493.204 202.538C491.323 203.513 489.135 204 486.642 204H478.346V180.268H486.642ZM486.472 199.954C488.965 199.954 490.892 199.274 492.252 197.914C493.612 196.554 494.292 194.639 494.292 192.168C494.292 189.697 493.612 187.771 492.252 186.388C490.892 184.983 488.965 184.28 486.472 184.28H483.106V199.954H486.472ZM517.269 199.478H507.817L506.253 204H501.255L509.789 180.234H515.331L523.865 204H518.833L517.269 199.478ZM515.977 195.67L512.543 185.742L509.109 195.67H515.977ZM543.205 180.268V184.11H536.881V204H532.121V184.11H525.797V180.268H543.205ZM561.23 199.478H551.778L550.214 204H545.216L553.75 180.234H559.292L567.826 204H562.794L561.23 199.478ZM559.938 195.67L556.504 185.742L553.07 195.67H559.938Z" fill="white"/>
<path d="M800.642 180.268C803.135 180.268 805.323 180.755 807.204 181.73C809.108 182.705 810.57 184.099 811.59 185.912C812.633 187.703 813.154 189.788 813.154 192.168C813.154 194.548 812.633 196.633 811.59 198.424C810.57 200.192 809.108 201.563 807.204 202.538C805.323 203.513 803.135 204 800.642 204H792.346V180.268H800.642ZM800.472 199.954C802.965 199.954 804.892 199.274 806.252 197.914C807.612 196.554 808.292 194.639 808.292 192.168C808.292 189.697 807.612 187.771 806.252 186.388C804.892 184.983 802.965 184.28 800.472 184.28H797.106V199.954H800.472ZM821.477 184.11V190.06H829.467V193.834H821.477V200.124H830.487V204H816.717V180.234H830.487V184.11H821.477ZM833.657 192.1C833.657 189.765 834.178 187.68 835.221 185.844C836.286 183.985 837.725 182.546 839.539 181.526C841.375 180.483 843.426 179.962 845.693 179.962C848.345 179.962 850.668 180.642 852.663 182.002C854.657 183.362 856.051 185.243 856.845 187.646H851.371C850.827 186.513 850.056 185.663 849.059 185.096C848.084 184.529 846.951 184.246 845.659 184.246C844.276 184.246 843.041 184.575 841.953 185.232C840.887 185.867 840.049 186.773 839.437 187.952C838.847 189.131 838.553 190.513 838.553 192.1C838.553 193.664 838.847 195.047 839.437 196.248C840.049 197.427 840.887 198.345 841.953 199.002C843.041 199.637 844.276 199.954 845.659 199.954C846.951 199.954 848.084 199.671 849.059 199.104C850.056 198.515 850.827 197.653 851.371 196.52H856.845C856.051 198.945 854.657 200.838 852.663 202.198C850.691 203.535 848.367 204.204 845.693 204.204C843.426 204.204 841.375 203.694 839.539 202.674C837.725 201.631 836.286 200.192 835.221 198.356C834.178 196.52 833.657 194.435 833.657 192.1ZM865.67 180.268V204H860.91V180.268H865.67ZM878.567 204.238C876.913 204.238 875.417 203.955 874.079 203.388C872.765 202.821 871.722 202.005 870.951 200.94C870.181 199.875 869.784 198.617 869.761 197.166H874.861C874.929 198.141 875.269 198.911 875.881 199.478C876.516 200.045 877.377 200.328 878.465 200.328C879.576 200.328 880.449 200.067 881.083 199.546C881.718 199.002 882.035 198.299 882.035 197.438C882.035 196.735 881.82 196.157 881.389 195.704C880.959 195.251 880.415 194.899 879.757 194.65C879.123 194.378 878.239 194.083 877.105 193.766C875.564 193.313 874.306 192.871 873.331 192.44C872.379 191.987 871.552 191.318 870.849 190.434C870.169 189.527 869.829 188.326 869.829 186.83C869.829 185.425 870.181 184.201 870.883 183.158C871.586 182.115 872.572 181.322 873.841 180.778C875.111 180.211 876.561 179.928 878.193 179.928C880.641 179.928 882.625 180.529 884.143 181.73C885.685 182.909 886.535 184.563 886.693 186.694H881.457C881.412 185.878 881.061 185.209 880.403 184.688C879.769 184.144 878.919 183.872 877.853 183.872C876.924 183.872 876.176 184.11 875.609 184.586C875.065 185.062 874.793 185.753 874.793 186.66C874.793 187.295 874.997 187.827 875.405 188.258C875.836 188.666 876.357 189.006 876.969 189.278C877.604 189.527 878.488 189.822 879.621 190.162C881.163 190.615 882.421 191.069 883.395 191.522C884.37 191.975 885.209 192.655 885.911 193.562C886.614 194.469 886.965 195.659 886.965 197.132C886.965 198.401 886.637 199.58 885.979 200.668C885.322 201.756 884.359 202.629 883.089 203.286C881.82 203.921 880.313 204.238 878.567 204.238ZM902.108 204.238C899.887 204.238 897.847 203.717 895.988 202.674C894.129 201.631 892.656 200.192 891.568 198.356C890.48 196.497 889.936 194.401 889.936 192.066C889.936 189.754 890.48 187.68 891.568 185.844C892.656 183.985 894.129 182.535 895.988 181.492C897.847 180.449 899.887 179.928 902.108 179.928C904.352 179.928 906.392 180.449 908.228 181.492C910.087 182.535 911.549 183.985 912.614 185.844C913.702 187.68 914.246 189.754 914.246 192.066C914.246 194.401 913.702 196.497 912.614 198.356C911.549 200.192 910.087 201.631 908.228 202.674C906.369 203.717 904.329 204.238 902.108 204.238ZM902.108 199.988C903.536 199.988 904.794 199.671 905.882 199.036C906.97 198.379 907.82 197.449 908.432 196.248C909.044 195.047 909.35 193.653 909.35 192.066C909.35 190.479 909.044 189.097 908.432 187.918C907.82 186.717 906.97 185.799 905.882 185.164C904.794 184.529 903.536 184.212 902.108 184.212C900.68 184.212 899.411 184.529 898.3 185.164C897.212 185.799 896.362 186.717 895.75 187.918C895.138 189.097 894.832 190.479 894.832 192.066C894.832 193.653 895.138 195.047 895.75 196.248C896.362 197.449 897.212 198.379 898.3 199.036C899.411 199.671 900.68 199.988 902.108 199.988ZM938.085 204H933.325L922.547 187.714V204H917.787V180.234H922.547L933.325 196.554V180.234H938.085V204Z" fill="white"/>
</svg>
