<?xml version="1.0" encoding="utf-8"?>
<!-- Generator: Adobe Illustrator 24.1.3, SVG Export Plug-In . SVG Version: 6.00 Build 0)  -->
<svg version="1.1" id="Layer_1" xmlns="http://www.w3.org/2000/svg" xmlns:xlink="http://www.w3.org/1999/xlink" x="0px" y="0px"
	 viewBox="0 0 68.7 79.5" style="enable-background:new 0 0 68.7 79.5;" xml:space="preserve">
<style type="text/css">
	.st0{fill:#FFFFFF;}
</style>
<path class="st0" d="M68.7,20.2L34.5,0.4L0.3,20.1l0,0.7l0,0l0,0l0,38.8l34.2,19.8l34.2-19.8l0-38.9l0,0L68.7,20.2z M66.5,58.4
	l-32,18.4l-32-18.5l0.1-37l32-18.4l32,18.5L66.5,58.4z"/>
<path class="st0" d="M34.5,71.6c-0.6,0-1.1,0.5-1.1,1.1s0.5,1.1,1.1,1.1l0,0c0.6,0,1.1-0.5,1.1-1.1S35.1,71.6,34.5,71.6z"/>
<path class="st0" d="M34.5,66.2c-0.6,0-1.1,0.5-1.1,1.1c0,0.6,0.5,1.1,1.1,1.1l0,0c0.6,0,1.1-0.5,1.1-1.1
	C35.6,66.6,35.1,66.2,34.5,66.2z"/>
<path class="st0" d="M34.5,44.3c-0.6,0-1.1,0.5-1.1,1.1c0,0.6,0.5,1.1,1.1,1.1l0,0c0.6,0,1.1-0.5,1.1-1.1
	C35.6,44.7,35,44.2,34.5,44.3L34.5,44.3z"/>
<path class="st0" d="M34.5,49.8c-0.6,0-1.1,0.5-1.1,1.1c0,0.6,0.5,1.1,1.1,1.1l0,0c0.6,0,1.1-0.5,1.1-1.1
	C35.7,50.2,35.2,49.7,34.5,49.8z"/>
<path class="st0" d="M34.5,55.3c-0.6,0-1.1,0.5-1.1,1.1c0,0.6,0.5,1.1,1.1,1.1l0,0c0.6,0,1.1-0.5,1.1-1.1
	C35.6,55.7,35.1,55.3,34.5,55.3z"/>
<path class="st0" d="M34.6,60.7c-0.6,0-1.1,0.5-1.1,1.1c0,0.6,0.5,1.1,1.1,1.1l0,0c0.6,0,1.1-0.5,1.1-1.1
	C35.6,61.1,35.1,60.7,34.6,60.7L34.6,60.7z"/>
<path class="st0" d="M6.7,22.6c-0.5-0.3-1.2-0.2-1.5,0.4c-0.3,0.5-0.2,1.2,0.4,1.5l0,0c0.5,0.3,1.2,0.2,1.5-0.4l0,0
	C7.4,23.6,7.3,22.9,6.7,22.6L6.7,22.6z"/>
<path class="st0" d="M25.7,33.5c-0.6-0.2-1.2,0-1.5,0.6c-0.2,0.5-0.1,1,0.3,1.3c0.5,0.3,1.2,0.2,1.5-0.4
	C26.4,34.5,26.2,33.8,25.7,33.5L25.7,33.5z"/>
<path class="st0" d="M30.3,36.3c-0.5-0.4-1.2-0.3-1.6,0.2c-0.4,0.5-0.3,1.2,0.2,1.6c0.1,0.1,0.2,0.1,0.3,0.2
	c0.2,0.1,0.4,0.2,0.6,0.2c0.6,0,1.1-0.5,1.1-1.1C30.9,36.8,30.7,36.5,30.3,36.3L30.3,36.3z"/>
<path class="st0" d="M16.1,28c-0.5-0.3-1.2-0.2-1.5,0.4l0,0c-0.3,0.5-0.2,1.2,0.4,1.5c0.2,0.1,0.4,0.2,0.6,0.2c0.4,0,0.8-0.2,1-0.5
	C16.8,29,16.7,28.3,16.1,28z"/>
<path class="st0" d="M11.4,25.3c-0.6-0.2-1.2,0.1-1.4,0.6c-0.2,0.4,0,0.9,0.3,1.2c0.5,0.3,1.2,0.2,1.5-0.4
	C12.2,26.2,12,25.6,11.4,25.3L11.4,25.3z"/>
<path class="st0" d="M20.9,30.8c-0.5-0.4-1.2-0.3-1.6,0.1c-0.4,0.5-0.3,1.2,0.1,1.6c0.1,0.1,0.2,0.1,0.3,0.2
	c0.2,0.1,0.4,0.2,0.6,0.2c0.6,0,1.1-0.5,1.1-1.1C21.5,31.3,21.3,31,20.9,30.8L20.9,30.8z"/>
<path class="st0" d="M33.7,39.2c-0.1,0.1-0.2,0.2-0.2,0.4c-0.1,0.1-0.1,0.3-0.1,0.4c0,0.1,0,0.3,0.1,0.4c0.1,0.1,0.1,0.3,0.2,0.4
	c0.4,0.4,1.1,0.4,1.6,0c0.2-0.2,0.3-0.5,0.3-0.8c0-0.1,0-0.3-0.1-0.4s-0.1-0.3-0.2-0.4C34.9,38.8,34.2,38.8,33.7,39.2L33.7,39.2z"/>
<path class="st0" d="M53.5,30.1c0.2,0,0.4,0,0.5-0.1c0.6-0.2,0.8-0.9,0.6-1.5c-0.2-0.6-0.9-0.8-1.5-0.6c-0.1,0-0.1,0.1-0.2,0.1
	c-0.5,0.3-0.7,1-0.4,1.5C52.7,29.9,53.1,30.1,53.5,30.1z"/>
<path class="st0" d="M48.8,32.9c0.2,0,0.4,0,0.5-0.1c0.5-0.3,0.7-1,0.4-1.5c-0.3-0.5-1-0.7-1.5-0.5c-0.5,0.3-0.7,1-0.5,1.5
	C47.9,32.6,48.4,32.9,48.8,32.9z"/>
<path class="st0" d="M58.2,27.3c0.2,0,0.4,0,0.5-0.1c0.5-0.3,0.7-1,0.4-1.5c-0.3-0.5-1-0.7-1.5-0.4c-0.5,0.3-0.7,1-0.4,1.5
	C57.4,27.2,57.8,27.5,58.2,27.3z"/>
<path class="st0" d="M62.9,25.6c0.2,0,0.4,0,0.5-0.1c0.5-0.3,0.7-1,0.4-1.5c-0.3-0.5-1-0.7-1.5-0.4c-0.5,0.3-0.7,1-0.4,1.5
	C62.1,25.4,62.5,25.6,62.9,25.6z"/>
<path class="st0" d="M39.3,38.3c0.2,0,0.4,0,0.5-0.1c0.5-0.3,0.7-1,0.4-1.5c-0.3-0.5-1-0.7-1.5-0.4c-0.5,0.3-0.7,1-0.4,1.5
	C38.5,38.2,38.9,38.3,39.3,38.3z"/>
<path class="st0" d="M44,35.6c0.2,0,0.4,0,0.5-0.1c0.5-0.3,0.7-1,0.4-1.5c-0.3-0.5-1-0.7-1.5-0.4c-0.5,0.3-0.7,1-0.4,1.5
	C43.2,35.3,43.6,35.6,44,35.6z"/>
</svg>
