<svg width="943" height="565" viewBox="0 0 943 565" fill="none" xmlns="http://www.w3.org/2000/svg">
<circle cx="202.5" cy="282" r="32.5" stroke="white" stroke-width="2"/>
<path d="M0.640625 295.499V272.399H10.0126C12.3666 272.399 14.2806 273.07 15.7546 274.412C17.2286 275.732 17.9656 277.514 17.9656 279.758C17.9656 282.002 17.2506 283.784 15.8206 285.104C14.4126 286.424 12.4766 287.084 10.0126 287.084H5.09562V295.499H0.640625ZM5.09562 282.959H9.94663C10.9366 282.959 11.7506 282.673 12.3886 282.101C13.0266 281.507 13.3456 280.726 13.3456 279.758C13.3456 278.636 13.0156 277.822 12.3556 277.316C11.7176 276.788 10.9146 276.524 9.94663 276.524H5.09562V282.959Z" fill="white"/>
<path d="M20.7822 295.499V272.399H30.1542C32.5302 272.399 34.4442 273.07 35.8962 274.412C37.3702 275.732 38.1072 277.514 38.1072 279.758C38.1072 281.43 37.6672 282.849 36.7872 284.015C35.9292 285.181 34.7412 286.006 33.2232 286.49L38.1402 295.499H33.3222L28.6692 286.919H25.2372V295.499H20.7822ZM25.2372 283.058H29.7912C32.3212 283.058 33.5862 281.958 33.5862 279.758C33.5862 277.536 32.3212 276.425 29.7912 276.425H25.2372V283.058Z" fill="white"/>
<path d="M46.5797 289.955C47.5917 291.253 48.8897 291.902 50.4737 291.902C52.0577 291.902 53.3557 291.264 54.3677 289.988C55.3797 288.69 55.8857 286.611 55.8857 283.751C55.8857 281.243 55.3577 279.329 54.3017 278.009C53.2677 276.689 51.9917 276.029 50.4737 276.029C48.9337 276.029 47.6467 276.689 46.6127 278.009C45.5787 279.329 45.0617 281.243 45.0617 283.751C45.0617 286.567 45.5677 288.635 46.5797 289.955ZM54.2027 295.301C53.0367 295.763 51.7937 295.994 50.4737 295.994C49.1537 295.994 47.9107 295.763 46.7447 295.301C45.5787 294.839 44.5117 294.146 43.5437 293.222C42.5977 292.276 41.8387 291 41.2667 289.394C40.7167 287.766 40.4417 285.885 40.4417 283.751C40.4417 281.837 40.7167 280.11 41.2667 278.57C41.8387 277.03 42.5977 275.787 43.5437 274.841C44.5117 273.873 45.5787 273.147 46.7447 272.663C47.9327 272.157 49.1757 271.904 50.4737 271.904C51.7717 271.904 53.0037 272.157 54.1697 272.663C55.3577 273.147 56.4247 273.873 57.3707 274.841C58.3387 275.787 59.0977 277.03 59.6477 278.57C60.2197 280.11 60.5057 281.837 60.5057 283.751C60.5057 285.885 60.2197 287.766 59.6477 289.394C59.0977 291 58.3387 292.276 57.3707 293.222C56.4247 294.146 55.3687 294.839 54.2027 295.301Z" fill="white"/>
<path d="M64.4814 295.499V272.399H74.2824C76.3284 272.399 77.9674 273.004 79.1994 274.214C80.4534 275.402 81.0804 276.865 81.0804 278.603C81.0804 280.539 80.2444 282.002 78.5724 282.992V283.025C79.5624 283.443 80.3654 284.114 80.9814 285.038C81.6194 285.94 81.9384 287.029 81.9384 288.305C81.9384 290.505 81.2674 292.265 79.9254 293.585C78.5834 294.861 76.3724 295.499 73.2924 295.499H64.4814ZM68.9364 291.374H74.3154C76.4274 291.374 77.4834 290.351 77.4834 288.305C77.4834 287.359 77.1975 286.633 76.6255 286.127C76.0755 285.599 75.3164 285.335 74.3484 285.335H68.9364V291.374ZM68.9364 281.705H73.7214C74.6234 281.705 75.3275 281.496 75.8335 281.078C76.3615 280.638 76.6255 280 76.6255 279.164C76.6255 278.284 76.3724 277.624 75.8664 277.184C75.3604 276.744 74.6454 276.524 73.7214 276.524H68.9364V281.705Z" fill="white"/>
<path d="M85.9121 295.499V272.399H90.3671V291.374H99.9041V295.499H85.9121Z" fill="white"/>
<path d="M103.024 295.499V272.399H117.643V276.524H107.479V281.705H116.719V285.665H107.479V291.374H117.643V295.499H103.024Z" fill="white"/>
<path d="M122.103 295.499V272.399H126.69L133.389 287.381H133.455L140.154 272.399H144.774V295.499H140.418V281.309H140.352L133.785 295.499H133.059L126.492 281.309H126.426V295.499H122.103Z" fill="white"/>
<path d="M538.096 291.375H541.165C541.957 291.375 542.65 291.287 543.244 291.111C543.838 290.913 544.399 290.561 544.927 290.055C545.455 289.549 545.862 288.79 546.148 287.778C546.434 286.744 546.577 285.457 546.577 283.917C546.577 281.343 546.093 279.473 545.125 278.307C544.179 277.119 542.925 276.525 541.363 276.525H538.096V291.375ZM533.641 295.5V272.4H541.363C542.683 272.4 543.926 272.631 545.092 273.093C546.258 273.555 547.314 274.237 548.26 275.139C549.206 276.041 549.954 277.251 550.504 278.769C551.076 280.265 551.362 281.981 551.362 283.917C551.362 286.029 551.076 287.866 550.504 289.428C549.932 290.99 549.151 292.2 548.161 293.058C547.171 293.894 546.093 294.51 544.927 294.906C543.783 295.302 542.529 295.5 541.165 295.5H533.641Z" fill="white"/>
<path d="M567.921 295.5L566.601 291.705H557.79L556.47 295.5H552.048L560.397 272.4H564.192L572.508 295.5H567.921ZM562.179 279L559.044 288.009H565.347L562.245 279H562.179Z" fill="white"/>
<path d="M577.122 295.5V276.525H570.357V272.4H588.342V276.525H581.577V295.5H577.122Z" fill="white"/>
<path d="M602.758 295.5L601.438 291.705H592.627L591.307 295.5H586.885L595.234 272.4H599.029L607.345 295.5H602.758ZM597.016 279L593.881 288.009H600.184L597.082 279H597.016Z" fill="white"/>
<path d="M801.805 291.499V268.399H806.26V291.499H801.805Z" fill="white"/>
<path d="M811.694 291.499V268.399H816.149L824.597 283.546H824.663V268.399H829.151V291.499H824.762L816.215 276.352H816.149V291.499H811.694Z" fill="white"/>
<path d="M832.961 283.777L837.647 282.754C837.933 284.558 838.395 285.867 839.033 286.681C839.693 287.473 840.76 287.869 842.234 287.869C843.488 287.869 844.489 287.649 845.237 287.209C845.985 286.747 846.359 286.076 846.359 285.196C846.359 284.272 845.996 283.568 845.27 283.084C844.566 282.578 842.938 281.929 840.386 281.137C837.988 280.389 836.283 279.487 835.271 278.431C834.281 277.353 833.786 276.033 833.786 274.471C833.786 272.667 834.479 271.127 835.865 269.851C837.273 268.553 839.176 267.904 841.574 267.904C843.752 267.904 845.622 268.432 847.184 269.488C848.768 270.544 849.758 272.117 850.154 274.207L845.831 275.296C845.149 273.118 843.73 272.029 841.574 272.029C840.43 272.029 839.572 272.249 839 272.689C838.45 273.129 838.175 273.712 838.175 274.438C838.175 275.12 838.494 275.648 839.132 276.022C839.77 276.374 841.409 277.001 844.049 277.903C846.601 278.783 848.35 279.74 849.296 280.774C850.242 281.786 850.715 283.161 850.715 284.899C850.715 286.945 849.945 288.639 848.405 289.981C846.865 291.323 844.808 291.994 842.234 291.994C839.616 291.994 837.493 291.312 835.865 289.948C834.259 288.562 833.291 286.505 832.961 283.777Z" fill="white"/>
<path d="M854.334 291.499V268.399H858.789V291.499H854.334Z" fill="white"/>
<path d="M872.936 291.994C869.966 291.994 867.546 290.971 865.676 288.925C863.828 286.857 862.904 283.744 862.904 279.586C862.904 275.934 863.883 273.074 865.841 271.006C867.821 268.938 870.175 267.904 872.903 267.904C875.235 267.904 877.215 268.608 878.843 270.016C880.493 271.424 881.483 273.338 881.813 275.758L877.358 276.484C876.808 273.514 875.334 272.029 872.936 272.029C871.418 272.029 870.131 272.689 869.075 274.009C868.019 275.329 867.491 277.188 867.491 279.586C867.491 282.402 867.997 284.492 869.009 285.856C870.043 287.198 871.352 287.869 872.936 287.869C874.366 287.869 875.488 287.462 876.302 286.648C877.138 285.834 877.556 284.69 877.556 283.216H873.266V279.421H881.813V282.49C881.813 285.416 880.988 287.737 879.338 289.453C877.688 291.147 875.554 291.994 872.936 291.994Z" fill="white"/>
<path d="M885.783 291.499V268.399H890.238V277.705H898.158V268.399H902.613V291.499H898.158V281.5H890.238V291.499H885.783Z" fill="white"/>
<path d="M912.346 291.499V272.524H905.581V268.399H923.566V272.524H916.801V291.499H912.346Z" fill="white"/>
<path d="M924.743 283.777L929.429 282.754C929.715 284.558 930.177 285.867 930.815 286.681C931.475 287.473 932.542 287.869 934.016 287.869C935.27 287.869 936.271 287.649 937.019 287.209C937.767 286.747 938.141 286.076 938.141 285.196C938.141 284.272 937.778 283.568 937.052 283.084C936.348 282.578 934.72 281.929 932.168 281.137C929.77 280.389 928.065 279.487 927.053 278.431C926.063 277.353 925.568 276.033 925.568 274.471C925.568 272.667 926.261 271.127 927.647 269.851C929.055 268.553 930.958 267.904 933.356 267.904C935.534 267.904 937.404 268.432 938.966 269.488C940.55 270.544 941.54 272.117 941.936 274.207L937.613 275.296C936.931 273.118 935.512 272.029 933.356 272.029C932.212 272.029 931.354 272.249 930.782 272.689C930.232 273.129 929.957 273.712 929.957 274.438C929.957 275.12 930.276 275.648 930.914 276.022C931.552 276.374 933.191 277.001 935.831 277.903C938.383 278.783 940.132 279.74 941.078 280.774C942.024 281.786 942.497 283.161 942.497 284.899C942.497 286.945 941.727 288.639 940.187 289.981C938.647 291.323 936.59 291.994 934.016 291.994C931.398 291.994 929.275 291.312 927.647 289.948C926.041 288.562 925.073 286.505 924.743 283.777Z" fill="white"/>
<path fill-rule="evenodd" clip-rule="evenodd" d="M205.299 250.5C221.186 110.099 340.352 1 485 1C629.648 1 748.815 110.099 764.701 250.5H765.708C749.816 109.546 630.201 0 485 0C339.799 0 220.184 109.546 204.293 250.5H205.299ZM205.188 313.5H204.182C219.619 454.936 339.456 565 485 565C630.544 565 750.382 454.936 765.819 313.5H764.813C749.38 454.382 629.991 564 485 564C340.009 564 220.62 454.382 205.188 313.5Z" fill="white"/>
<path fill-rule="evenodd" clip-rule="evenodd" d="M206.957 250.5C221.591 183.867 280.972 134 352.001 134C423.029 134 482.41 183.867 497.044 250.5H498.068C483.416 183.31 423.584 133 352.001 133C280.418 133 220.585 183.31 205.933 250.5H206.957ZM206.741 313.5H205.719C219.992 381.19 280.063 432 352.001 432C423.938 432 484.009 381.19 498.282 313.5H497.26C483.003 380.634 423.384 431 352.001 431C280.618 431 220.998 380.634 206.741 313.5Z" fill="white"/>
<circle cx="203" cy="282.5" r="9" fill="white"/>
<circle cx="498" cy="282.5" r="9" fill="#EC6607"/>
<circle cx="766" cy="282.5" r="9" fill="white"/>
</svg>
