<svg width="946" height="565" viewBox="0 0 946 565" fill="none" xmlns="http://www.w3.org/2000/svg">
<circle cx="204.5" cy="282" r="32.5" stroke="white" stroke-width="2"/>
<path d="M2.64 295.5V272.4H12.012C14.366 272.4 16.28 273.071 17.754 274.413C19.228 275.733 19.965 277.515 19.965 279.759C19.965 282.003 19.25 283.785 17.82 285.105C16.412 286.425 14.476 287.085 12.012 287.085H7.095V295.5H2.64ZM7.095 282.96H11.946C12.936 282.96 13.75 282.674 14.388 282.102C15.026 281.508 15.345 280.727 15.345 279.759C15.345 278.637 15.015 277.823 14.355 277.317C13.717 276.789 12.914 276.525 11.946 276.525H7.095V282.96ZM22.7816 295.5V272.4H32.1536C34.5296 272.4 36.4436 273.071 37.8956 274.413C39.3696 275.733 40.1066 277.515 40.1066 279.759C40.1066 281.431 39.6666 282.85 38.7866 284.016C37.9286 285.182 36.7406 286.007 35.2226 286.491L40.1396 295.5H35.3216L30.6686 286.92H27.2366V295.5H22.7816ZM27.2366 283.059H31.7906C34.3206 283.059 35.5856 281.959 35.5856 279.759C35.5856 277.537 34.3206 276.426 31.7906 276.426H27.2366V283.059ZM48.5791 289.956C49.5911 291.254 50.8891 291.903 52.4731 291.903C54.0571 291.903 55.3551 291.265 56.3671 289.989C57.3791 288.691 57.8851 286.612 57.8851 283.752C57.8851 281.244 57.3571 279.33 56.3011 278.01C55.2671 276.69 53.9911 276.03 52.4731 276.03C50.9331 276.03 49.6461 276.69 48.6121 278.01C47.5781 279.33 47.0611 281.244 47.0611 283.752C47.0611 286.568 47.5671 288.636 48.5791 289.956ZM56.2021 295.302C55.0361 295.764 53.7931 295.995 52.4731 295.995C51.1531 295.995 49.9101 295.764 48.7441 295.302C47.5781 294.84 46.5111 294.147 45.5431 293.223C44.5971 292.277 43.8381 291.001 43.2661 289.395C42.7161 287.767 42.4411 285.886 42.4411 283.752C42.4411 281.838 42.7161 280.111 43.2661 278.571C43.8381 277.031 44.5971 275.788 45.5431 274.842C46.5111 273.874 47.5781 273.148 48.7441 272.664C49.9321 272.158 51.1751 271.905 52.4731 271.905C53.7711 271.905 55.0031 272.158 56.1691 272.664C57.3571 273.148 58.4241 273.874 59.3701 274.842C60.3381 275.788 61.0971 277.031 61.6471 278.571C62.2191 280.111 62.5051 281.838 62.5051 283.752C62.5051 285.886 62.2191 287.767 61.6471 289.395C61.0971 291.001 60.3381 292.277 59.3701 293.223C58.4241 294.147 57.3681 294.84 56.2021 295.302ZM66.4808 295.5V272.4H76.2818C78.3278 272.4 79.9668 273.005 81.1988 274.215C82.4528 275.403 83.0798 276.866 83.0798 278.604C83.0798 280.54 82.2438 282.003 80.5718 282.993V283.026C81.5618 283.444 82.3648 284.115 82.9808 285.039C83.6188 285.941 83.9378 287.03 83.9378 288.306C83.9378 290.506 83.2668 292.266 81.9248 293.586C80.5828 294.862 78.3718 295.5 75.2918 295.5H66.4808ZM70.9358 291.375H76.3148C78.4268 291.375 79.4828 290.352 79.4828 288.306C79.4828 287.36 79.1968 286.634 78.6248 286.128C78.0748 285.6 77.3158 285.336 76.3478 285.336H70.9358V291.375ZM70.9358 281.706H75.7208C76.6228 281.706 77.3268 281.497 77.8328 281.079C78.3608 280.639 78.6248 280.001 78.6248 279.165C78.6248 278.285 78.3718 277.625 77.8658 277.185C77.3598 276.745 76.6448 276.525 75.7208 276.525H70.9358V281.706ZM87.9115 295.5V272.4H92.3665V291.375H101.903V295.5H87.9115ZM105.024 295.5V272.4H119.643V276.525H109.479V281.706H118.719V285.666H109.479V291.375H119.643V295.5H105.024ZM124.102 295.5V272.4H128.689L135.388 287.382H135.454L142.153 272.4H146.773V295.5H142.417V281.31H142.351L135.784 295.5H135.058L128.491 281.31H128.425V295.5H124.102Z" fill="white"/>
<path d="M540.095 291.375H543.164C543.956 291.375 544.649 291.287 545.243 291.111C545.837 290.913 546.398 290.561 546.926 290.055C547.454 289.549 547.861 288.79 548.147 287.778C548.433 286.744 548.576 285.457 548.576 283.917C548.576 281.343 548.092 279.473 547.124 278.307C546.178 277.119 544.924 276.525 543.362 276.525H540.095V291.375ZM535.64 295.5V272.4H543.362C544.682 272.4 545.925 272.631 547.091 273.093C548.257 273.555 549.313 274.237 550.259 275.139C551.205 276.041 551.953 277.251 552.503 278.769C553.075 280.265 553.361 281.981 553.361 283.917C553.361 286.029 553.075 287.866 552.503 289.428C551.931 290.99 551.15 292.2 550.16 293.058C549.17 293.894 548.092 294.51 546.926 294.906C545.782 295.302 544.528 295.5 543.164 295.5H535.64ZM569.921 295.5L568.601 291.705H559.79L558.47 295.5H554.048L562.397 272.4H566.192L574.508 295.5H569.921ZM564.179 279L561.044 288.009H567.347L564.245 279H564.179ZM579.121 295.5V276.525H572.356V272.4H590.341V276.525H583.576V295.5H579.121ZM604.758 295.5L603.438 291.705H594.627L593.307 295.5H588.885L597.234 272.4H601.029L609.345 295.5H604.758ZM599.016 279L595.881 288.009H602.184L599.082 279H599.016Z" fill="white"/>
<path d="M803.805 291.5V268.4H808.26V291.5H803.805ZM813.695 291.5V268.4H818.15L826.598 283.547H826.664V268.4H831.152V291.5H826.763L818.216 276.353H818.15V291.5H813.695ZM834.962 283.778L839.648 282.755C839.934 284.559 840.396 285.868 841.034 286.682C841.694 287.474 842.761 287.87 844.235 287.87C845.489 287.87 846.49 287.65 847.238 287.21C847.986 286.748 848.36 286.077 848.36 285.197C848.36 284.273 847.997 283.569 847.271 283.085C846.567 282.579 844.939 281.93 842.387 281.138C839.989 280.39 838.284 279.488 837.272 278.432C836.282 277.354 835.787 276.034 835.787 274.472C835.787 272.668 836.48 271.128 837.866 269.852C839.274 268.554 841.177 267.905 843.575 267.905C845.753 267.905 847.623 268.433 849.185 269.489C850.769 270.545 851.759 272.118 852.155 274.208L847.832 275.297C847.15 273.119 845.731 272.03 843.575 272.03C842.431 272.03 841.573 272.25 841.001 272.69C840.451 273.13 840.176 273.713 840.176 274.439C840.176 275.121 840.495 275.649 841.133 276.023C841.771 276.375 843.41 277.002 846.05 277.904C848.602 278.784 850.351 279.741 851.297 280.775C852.243 281.787 852.716 283.162 852.716 284.9C852.716 286.946 851.946 288.64 850.406 289.982C848.866 291.324 846.809 291.995 844.235 291.995C841.617 291.995 839.494 291.313 837.866 289.949C836.26 288.563 835.292 286.506 834.962 283.778ZM856.334 291.5V268.4H860.789V291.5H856.334ZM874.936 291.995C871.966 291.995 869.546 290.972 867.676 288.926C865.828 286.858 864.904 283.745 864.904 279.587C864.904 275.935 865.883 273.075 867.841 271.007C869.821 268.939 872.175 267.905 874.903 267.905C877.235 267.905 879.215 268.609 880.843 270.017C882.493 271.425 883.483 273.339 883.813 275.759L879.358 276.485C878.808 273.515 877.334 272.03 874.936 272.03C873.418 272.03 872.131 272.69 871.075 274.01C870.019 275.33 869.491 277.189 869.491 279.587C869.491 282.403 869.997 284.493 871.009 285.857C872.043 287.199 873.352 287.87 874.936 287.87C876.366 287.87 877.488 287.463 878.302 286.649C879.138 285.835 879.556 284.691 879.556 283.217H875.266V279.422H883.813V282.491C883.813 285.417 882.988 287.738 881.338 289.454C879.688 291.148 877.554 291.995 874.936 291.995ZM887.784 291.5V268.4H892.239V277.706H900.159V268.4H904.614V291.5H900.159V281.501H892.239V291.5H887.784ZM914.346 291.5V272.525H907.581V268.4H925.566V272.525H918.801V291.5H914.346ZM926.743 283.778L931.429 282.755C931.715 284.559 932.177 285.868 932.815 286.682C933.475 287.474 934.542 287.87 936.016 287.87C937.27 287.87 938.271 287.65 939.019 287.21C939.767 286.748 940.141 286.077 940.141 285.197C940.141 284.273 939.778 283.569 939.052 283.085C938.348 282.579 936.72 281.93 934.168 281.138C931.77 280.39 930.065 279.488 929.053 278.432C928.063 277.354 927.568 276.034 927.568 274.472C927.568 272.668 928.261 271.128 929.647 269.852C931.055 268.554 932.958 267.905 935.356 267.905C937.534 267.905 939.404 268.433 940.966 269.489C942.55 270.545 943.54 272.118 943.936 274.208L939.613 275.297C938.931 273.119 937.512 272.03 935.356 272.03C934.212 272.03 933.354 272.25 932.782 272.69C932.232 273.13 931.957 273.713 931.957 274.439C931.957 275.121 932.276 275.649 932.914 276.023C933.552 276.375 935.191 277.002 937.831 277.904C940.383 278.784 942.132 279.741 943.078 280.775C944.024 281.787 944.497 283.162 944.497 284.9C944.497 286.946 943.727 288.64 942.187 289.982C940.647 291.324 938.59 291.995 936.016 291.995C933.398 291.995 931.275 291.313 929.647 289.949C928.041 288.563 927.073 286.506 926.743 283.778Z" fill="white"/>
<path fill-rule="evenodd" clip-rule="evenodd" d="M207.299 250.5C223.186 110.099 342.352 1 487 1C631.648 1 750.815 110.099 766.701 250.5H767.708C751.816 109.546 632.201 0 487 0C341.799 0 222.184 109.546 206.293 250.5H207.299ZM207.188 313.5H206.182C221.619 454.936 341.456 565 487 565C632.544 565 752.382 454.936 767.819 313.5H766.813C751.38 454.382 631.991 564 487 564C342.009 564 222.62 454.382 207.188 313.5Z" fill="white"/>
<path fill-rule="evenodd" clip-rule="evenodd" d="M208.957 250.5C223.591 183.867 282.972 134 354.001 134C425.029 134 484.41 183.867 499.044 250.5H500.068C485.416 183.31 425.584 133 354.001 133C282.418 133 222.585 183.31 207.933 250.5H208.957ZM208.741 313.5H207.719C221.992 381.19 282.063 432 354.001 432C425.938 432 486.009 381.19 500.282 313.5H499.26C485.003 380.634 425.384 431 354.001 431C282.618 431 222.998 380.634 208.741 313.5Z" fill="white"/>
<circle cx="205" cy="282.5" r="9" fill="white"/>
<circle cx="500" cy="282.5" r="9" fill="white"/>
<circle cx="768" cy="282.5" r="9" fill="white"/>
</svg>
