<?xml version="1.0" encoding="utf-8"?>
<!-- Generator: Adobe Illustrator 24.1.3, SVG Export Plug-In . SVG Version: 6.00 Build 0)  -->
<svg version="1.1" id="Layer_1" xmlns="http://www.w3.org/2000/svg" xmlns:xlink="http://www.w3.org/1999/xlink" x="0px" y="0px"
	 viewBox="0 0 10 87.9" style="enable-background:new 0 0 10 87.9;" xml:space="preserve">
<style type="text/css">
	.st0{fill:#0F1827;}
</style>
<g>
	<path class="st0" d="M5.7,40.2H4.5V36H1.9v4.9H0.7v-6.3h8.6v6.2H8.1V36H5.7V40.2z"/>
	<path class="st0" d="M9.3,41.7v1.5l-3.2,1.9v0l3.2,2v1.5L5.1,46l-4.4,2.9v-1.7l3.3-2.1v0l-3.3-2v-1.7l4.4,2.9L9.3,41.7z"/>
	<path class="st0" d="M9.3,49.7v3.6c0,1.6-0.8,2.8-2.6,2.8S4.1,55,4.1,53.4v-2.2H0.7v-1.4H9.3z M5.4,51.2v2.2c0,1,0.4,1.5,1.4,1.5
		c0.9,0,1.4-0.5,1.4-1.5v-2.2H5.4z"/>
	<path class="st0" d="M9.3,58.6H1.9v4.3H0.7v-5.7h8.6V58.6z"/>
	<path class="st0" d="M5,63.1c2.6,0,4.5,1.6,4.5,4.2c0,2.6-1.9,4.2-4.5,4.2c-2.6,0-4.5-1.6-4.5-4.2C0.5,64.7,2.4,63.1,5,63.1z
		 M5,70.1c1.7,0,3.2-0.8,3.2-2.8c0-2-1.5-2.8-3.2-2.8c-1.7,0-3.3,0.8-3.3,2.8C1.8,69.2,3.3,70.1,5,70.1z"/>
	<path class="st0" d="M9.3,72.6v3.7c0,1.8-0.9,2.9-2.5,2.9c-1.2,0-1.9-0.6-2.1-1.6h0c-0.4,2-3.7,1.3-3.9,1.7H0.7v-1.5
		C1.1,77.4,4,78.2,4,76.2v-2.1H0.7v-1.4H9.3z M5.2,74.1V76c0,0.9,0.2,1.8,1.4,1.8c1.2,0,1.4-0.9,1.4-1.8v-1.9H5.2z"/>
	<path class="st0" d="M5.7,86H4.5v-4.2H1.9v4.9H0.7v-6.3h8.6v6.2H8.1v-4.8H5.7V86z"/>
</g>
</svg>
