<svg width="100" height="101" viewBox="0 0 100 101" fill="none" xmlns="http://www.w3.org/2000/svg">
<path d="M99.9993 0V76.98C100.004 78.2637 99.5267 79.5024 98.6625 80.4515C97.7982 81.4007 96.6095 81.9914 95.331 82.1069C94.0525 82.2224 92.7772 81.8545 91.7568 81.0756C90.7364 80.2968 90.045 79.1637 89.8193 77.9L89.7393 76.98L89.7293 18.72C89.7298 18.6213 89.7012 18.5246 89.6469 18.4422C89.5926 18.3597 89.5152 18.2952 89.4243 18.2567C89.3334 18.2182 89.2331 18.2074 89.1361 18.2258C89.0391 18.2442 88.9497 18.2909 88.8793 18.36L8.75926 98.5C7.91079 99.3516 6.79019 99.8782 5.59307 99.9879C4.39594 100.098 3.19833 99.7833 2.20926 99.1L1.50926 98.5C0.657649 97.6515 0.131057 96.5309 0.0213967 95.3338C-0.0882636 94.1367 0.225973 92.9391 0.909258 91.95L1.50926 91.24L81.6093 11.12C81.6812 11.0507 81.7307 10.9613 81.7514 10.8636C81.7721 10.7658 81.7631 10.6641 81.7254 10.5715C81.6877 10.479 81.6232 10.3998 81.5401 10.3443C81.457 10.2888 81.3592 10.2594 81.2593 10.26H23.0193C21.8192 10.2612 20.6566 9.84156 19.734 9.07418C18.8113 8.30679 18.1868 7.24021 17.9693 6.06L17.8893 5.12C17.8893 2.6 19.6993 0.51 22.0893 0.07L23.0293 0H99.9993Z" fill="white"/>
</svg>
