<svg width="71" height="72" viewBox="0 0 71 72" fill="none" xmlns="http://www.w3.org/2000/svg">
<path d="M35.168 0.0104689C35.057 0.0384689 34.972 0.0664695 34.916 0.0944695L17.711 10.0325H17.683C17.627 10.0605 17.571 10.1165 17.514 10.1445C17.487 10.1725 17.458 10.2005 17.458 10.2285C17.43 10.2565 17.43 10.2565 17.402 10.2845C17.345 10.3685 17.289 10.4815 17.289 10.5655C17.262 10.6215 17.262 10.7065 17.262 10.7625V30.2185L0.45 39.9325H0.422C0.365 39.9595 0.31 39.9885 0.253 40.0445C0.225 40.0715 0.225 40.1005 0.197 40.1285C0.169 40.1285 0.169 40.1565 0.14 40.1565C0.0830003 40.2685 0.0559999 40.3525 0.0279999 40.4655C-1.22935e-07 40.5215 0 40.5775 0 40.6335V60.5385C0 60.8185 0.169 61.1005 0.394 61.2405L17.514 71.0945C17.542 71.1225 17.542 71.1225 17.571 71.1515L17.599 71.1785C17.627 71.1785 17.627 71.1785 17.627 71.1785H17.654C17.682 71.2065 17.682 71.2065 17.711 71.2065C17.711 71.2065 17.711 71.2065 17.738 71.2065C17.738 71.2345 17.767 71.2345 17.767 71.2345C17.794 71.2345 17.794 71.2625 17.794 71.2625C17.822 71.2625 17.851 71.2625 17.851 71.2625H17.878C17.878 71.2625 17.907 71.2895 17.935 71.2895C17.935 71.2895 17.935 71.2895 17.963 71.2895H17.991C18.018 71.2895 18.018 71.2895 18.018 71.2895C18.159 71.2895 18.328 71.2625 18.44 71.1775C18.468 71.1775 18.524 71.1505 18.553 71.1215L35.309 61.4655L52.008 71.0945C52.035 71.1225 52.064 71.1225 52.092 71.1515L52.12 71.1785C52.12 71.1785 52.12 71.1785 52.148 71.1785H52.175C52.175 71.2065 52.203 71.2065 52.203 71.2065C52.231 71.2065 52.231 71.2065 52.231 71.2065C52.259 71.2345 52.259 71.2345 52.287 71.2345L52.315 71.2625C52.315 71.2625 52.343 71.2625 52.372 71.2625C52.4 71.2625 52.428 71.2895 52.428 71.2895C52.456 71.2895 52.456 71.2895 52.456 71.2895C52.484 71.2895 52.484 71.2895 52.513 71.2895C52.513 71.2895 52.513 71.2895 52.541 71.2895C52.681 71.2895 52.821 71.2625 52.962 71.1775C52.99 71.1775 53.019 71.1505 53.047 71.1215L70.223 61.2395C70.449 61.0985 70.617 60.8175 70.617 60.5375V40.7465C70.617 40.6905 70.617 40.6625 70.617 40.6345C70.617 40.6345 70.617 40.6075 70.617 40.5785C70.617 40.5785 70.617 40.5785 70.617 40.5505V40.5225C70.59 40.4105 70.561 40.2975 70.476 40.1855C70.476 40.1855 70.476 40.1585 70.449 40.1295C70.421 40.1015 70.421 40.1015 70.421 40.1015C70.364 40.0175 70.28 39.9605 70.224 39.9335L53.357 30.2195V10.8475C53.357 10.8195 53.357 10.7915 53.357 10.7635C53.357 10.7355 53.357 10.7075 53.357 10.7075V10.6795C53.357 10.6515 53.357 10.6515 53.357 10.6235C53.33 10.5115 53.301 10.3985 53.216 10.3145C53.216 10.2865 53.216 10.2865 53.216 10.2585C53.189 10.2585 53.189 10.2305 53.189 10.2305C53.161 10.2305 53.161 10.2025 53.161 10.2025C53.104 10.1465 53.02 10.0905 52.964 10.0345L35.703 0.0964693C35.534 0.0104693 35.337 -0.0175311 35.168 0.0104689ZM35.309 1.69447L50.967 10.7345L39.217 17.5285L35.309 19.8025L19.651 10.7625L35.309 1.69447ZM18.836 12.1105L34.522 21.1785V39.2305L27.438 35.1605L18.836 30.1905V12.1105ZM51.783 12.1105V30.1905L36.096 39.2585V21.1785L51.783 12.1105ZM18.049 31.5655L25.947 36.1425L33.707 40.6065L21.955 47.4005L18.049 49.6735L14.141 47.4005L2.39 40.6065L18.049 31.5655ZM52.57 31.5655L68.228 40.6065L56.478 47.4005L52.57 49.6735L48.634 47.4005L36.883 40.6065L46.638 34.9915L52.57 31.5655ZM1.575 42.0095L17.263 51.0495V69.1295L1.575 60.0615V42.0095ZM34.522 42.0095V60.0615L18.836 69.1295V51.0495L34.522 42.0095ZM36.096 42.0095L51.783 51.0495V69.1295L36.096 60.0615V42.0095V42.0095ZM69.015 42.0095V60.0615L53.357 69.1295V51.0495L69.015 42.0095Z" fill="#EE6823"/>
</svg>
