<svg width="61" height="37" viewBox="0 0 61 37" fill="none" xmlns="http://www.w3.org/2000/svg">
<path d="M0.136543 15V0.299999H2.97154V12.375H9.04054V15H0.136543ZM11.0262 15V0.299999H20.3292V2.925H13.8612V6.222H19.7412V8.742H13.8612V12.375H20.3292V15H11.0262ZM31.6928 15L30.8528 12.585H25.2458L24.4058 15H21.5918L26.9048 0.299999H29.3198L34.6118 15H31.6928ZM28.0388 4.5L26.0438 10.233H30.0548L28.0808 4.5H28.0388ZM36.3944 15V0.299999H42.3584C43.8704 0.299999 45.0884 0.726999 46.0124 1.581C46.9504 2.421 47.4194 3.555 47.4194 4.983C47.4194 6.047 47.1394 6.95 46.5794 7.692C46.0334 8.434 45.2774 8.959 44.3114 9.267L47.4404 15H44.3744L41.4134 9.54H39.2294V15H36.3944ZM39.2294 7.083H42.1274C43.7374 7.083 44.5424 6.383 44.5424 4.983C44.5424 3.569 43.7374 2.862 42.1274 2.862H39.2294V7.083ZM49.7449 15V0.299999H52.5799L57.9559 9.939H57.9979V0.299999H60.8539V15H58.0609L52.6219 5.361H52.5799V15H49.7449ZM3.31525 36V21.3H6.23425L10.4973 30.834H10.5393L14.8023 21.3H17.7423V36H14.9703V26.97H14.9283L10.7493 36H10.2873L6.10825 26.97H6.06625V36H3.31525ZM24.1615 32.472C24.8055 33.298 25.6315 33.711 26.6395 33.711C27.6475 33.711 28.4735 33.305 29.1175 32.493C29.7615 31.667 30.0835 30.344 30.0835 28.524C30.0835 26.928 29.7475 25.71 29.0755 24.87C28.4175 24.03 27.6055 23.61 26.6395 23.61C25.6595 23.61 24.8405 24.03 24.1825 24.87C23.5245 25.71 23.1955 26.928 23.1955 28.524C23.1955 30.316 23.5175 31.632 24.1615 32.472ZM29.0125 35.874C28.2705 36.168 27.4795 36.315 26.6395 36.315C25.7995 36.315 25.0085 36.168 24.2665 35.874C23.5245 35.58 22.8455 35.139 22.2295 34.551C21.6275 33.949 21.1445 33.137 20.7805 32.115C20.4305 31.079 20.2555 29.882 20.2555 28.524C20.2555 27.306 20.4305 26.207 20.7805 25.227C21.1445 24.247 21.6275 23.456 22.2295 22.854C22.8455 22.238 23.5245 21.776 24.2665 21.468C25.0225 21.146 25.8135 20.985 26.6395 20.985C27.4655 20.985 28.2495 21.146 28.9915 21.468C29.7475 21.776 30.4265 22.238 31.0285 22.854C31.6445 23.456 32.1275 24.247 32.4775 25.227C32.8415 26.207 33.0235 27.306 33.0235 28.524C33.0235 29.882 32.8415 31.079 32.4775 32.115C32.1275 33.137 31.6445 33.949 31.0285 34.551C30.4265 35.139 29.7545 35.58 29.0125 35.874ZM35.5535 36V21.3H41.5175C43.0295 21.3 44.2475 21.727 45.1715 22.581C46.1095 23.421 46.5785 24.555 46.5785 25.983C46.5785 27.047 46.2985 27.95 45.7385 28.692C45.1925 29.434 44.4365 29.959 43.4705 30.267L46.5995 36H43.5335L40.5725 30.54H38.3885V36H35.5535ZM38.3885 28.083H41.2865C42.8965 28.083 43.7015 27.383 43.7015 25.983C43.7015 24.569 42.8965 23.862 41.2865 23.862H38.3885V28.083ZM48.9041 36V21.3H58.2071V23.925H51.7391V27.222H57.6191V29.742H51.7391V33.375H58.2071V36H48.9041Z" fill="white"/>
</svg>
