<?xml version="1.0" encoding="utf-8"?>
<!-- Generator: Adobe Illustrator 24.1.3, SVG Export Plug-In . SVG Version: 6.00 Build 0)  -->
<svg version="1.1" id="Layer_1" xmlns="http://www.w3.org/2000/svg" xmlns:xlink="http://www.w3.org/1999/xlink" x="0px" y="0px"
	 viewBox="0 0 1200 1200" style="enable-background:new 0 0 1200 1200;" xml:space="preserve">
<style type="text/css">
	.st0{fill:#0F1827;}
</style>
<path class="st0" d="M48.4,618.4h1059.5L771.3,955c-7.4,7.4-7.4,18.4,0,25.8c7.4,7.4,18.4,7.4,25.8,0l367.9-367.9
	c1.8-1.8,3.7-3.7,3.7-5.5c1.8-3.7,1.8-9.2,0-14.7c-1.8-1.8-1.8-3.7-3.7-5.5L797,219.2c-3.7-3.7-7.4-5.5-12.9-5.5
	c-5.5,0-9.2,1.8-12.9,5.5c-7.4,7.4-7.4,18.4,0,25.8l336.6,336.6H48.4c-11,0-18.4,7.4-18.4,18.4C30,611,37.4,618.4,48.4,618.4
	L48.4,618.4z"/>
</svg>
