<svg width="209" height="257" viewBox="0 0 209 257" fill="none" xmlns="http://www.w3.org/2000/svg">
<path d="M52.748 186.719H61.5824L63.3175 186.687C68.7226 186.687 72.3125 185.82 74.0877 184.086C75.863 182.343 76.7539 178.834 76.7539 173.54C76.7539 168.216 75.8219 164.617 73.9588 162.754C72.0957 160.891 68.4892 159.959 63.1408 159.959H45.2461V199.488H52.7469L52.748 186.719ZM52.748 166.272H62.0484C65.2526 166.272 67.237 166.673 67.9999 167.468C68.7629 168.271 69.1485 170.335 69.1485 173.676C69.1485 176.592 68.6909 178.439 67.7748 179.218C66.8596 179.997 64.6988 180.391 61.3012 180.391H52.7478L52.748 166.272Z" fill="#0F1827"/>
<path d="M113.214 195.279C114.99 192.468 115.881 186.124 115.881 176.261C115.881 170.222 114.765 165.997 112.564 163.58C110.355 161.162 106.484 159.966 100.967 159.966H81.5312V199.495H101.199C107.432 199.486 111.448 198.081 113.215 195.278L113.214 195.279ZM89.0329 193.175V166.272H100.18C103.674 166.272 105.898 167.059 106.846 168.641C107.794 170.223 108.268 173.933 108.268 179.764C108.268 185.402 107.746 189.049 106.686 190.695C105.633 192.35 103.313 193.176 99.7228 193.176L89.0329 193.175Z" fill="#0F1827"/>
<path d="M128.861 183.241H146.586V176.928H128.861V166.271H147.541V159.958H121.359V199.486H128.861V183.241Z" fill="#0F1827"/>
<path d="M188.265 245.307H208.038V0H14.9428V19.7327H0.960938V257.008H188.265L188.265 245.307ZM22.9732 8.03125H200.006V237.275H188.264V19.7462H22.9723L22.9732 8.03125ZM180.234 248.969H8.9924V27.756H180.234V248.969Z" fill="#0F1827"/>
</svg>
