<svg width="2492" height="338" viewBox="0 0 2492 338" fill="none" xmlns="http://www.w3.org/2000/svg">
<path d="M707.021 337.042C799.816 337.042 875.042 261.816 875.042 169.021C875.042 76.2256 799.816 1 707.021 1C614.226 1 539 76.2256 539 169.021C539 261.816 614.226 337.042 707.021 337.042Z" fill="white" stroke="#0F1827" stroke-width="1.25"/>
<path d="M169.021 337.042C261.816 337.042 337.042 261.816 337.042 169.021C337.042 76.2256 261.816 1 169.021 1C76.2256 1 1 76.2256 1 169.021C1 261.816 76.2256 337.042 169.021 337.042Z" fill="white" stroke="#0F1827" stroke-width="1.25"/>
<path d="M1246.02 337.042C1338.82 337.042 1414.04 261.816 1414.04 169.021C1414.04 76.2256 1338.82 1 1246.02 1C1153.23 1 1078 76.2256 1078 169.021C1078 261.816 1153.23 337.042 1246.02 337.042Z" fill="white" stroke="#0F1827" stroke-width="1.25"/>
<path d="M1784.02 337.042C1876.82 337.042 1952.04 261.816 1952.04 169.021C1952.04 76.2256 1876.82 1 1784.02 1C1691.23 1 1616 76.2256 1616 169.021C1616 261.816 1691.23 337.042 1784.02 337.042Z" fill="#EE6823" stroke="#EE6823" stroke-width="1.25"/>
<path d="M2323.02 337.042C2415.82 337.042 2491.04 261.816 2491.04 169.021C2491.04 76.2256 2415.82 1 2323.02 1C2230.23 1 2155 76.2256 2155 169.021C2155 261.816 2230.23 337.042 2323.02 337.042Z" fill="white" stroke="#0F1827" stroke-width="1.25"/>
<path d="M93.8678 140.45H97.4378V161.9H93.8678V140.45Z" fill="#0F1827"/>
<path d="M101.132 161.9V140.45H109.472C115.382 140.45 119.012 144.29 119.012 151.19C119.012 158.09 115.502 161.9 109.562 161.9H101.132ZM104.702 143.48V158.87H109.292C114.092 158.87 115.442 155.3 115.442 151.19C115.442 147.08 114.092 143.48 109.292 143.48H104.702Z" fill="#0F1827"/>
<path d="M125.444 149.3H135.914V152.36H125.444V158.87H137.684V161.9H121.874V140.45H137.384V143.48H125.444V149.3Z" fill="#0F1827"/>
<path d="M140.595 161.9V140.45H144.585L154.245 156.56H154.305V140.45H157.875V161.9H153.915L144.225 145.85H144.165V161.9H140.595Z" fill="#0F1827"/>
<path d="M166.508 161.9V143.48H159.638V140.45H176.918V143.48H170.078V161.9H166.508Z" fill="#0F1827"/>
<path d="M179.415 140.45H182.985V161.9H179.415V140.45Z" fill="#0F1827"/>
<path d="M190.249 149.72H199.519V152.78H190.249V161.9H186.679V140.45H201.679V143.48H190.249V149.72Z" fill="#0F1827"/>
<path d="M202.725 140.45H206.535L212.085 150.41H212.145L217.725 140.45H221.535L213.915 153.38V161.9H210.345V153.38L202.725 140.45Z" fill="#0F1827"/>
<path d="M246.257 161.9H242.387L240.947 160.16C239.477 161.48 237.557 162.35 235.187 162.35C230.807 162.35 228.467 159.89 228.467 156.62C228.467 153.44 230.717 151.73 232.967 150.41C231.467 148.58 230.447 147.14 230.447 145.13C230.447 142.61 232.247 140.03 235.937 140C239.387 139.97 241.427 142.61 241.427 145.13C241.427 147.56 239.807 149.06 236.987 150.68L240.917 155.42C241.487 154.22 241.877 152.9 242.087 151.58H245.057C244.787 153.62 244.097 155.9 242.897 157.82L246.257 161.9ZM235.937 142.97C234.377 142.97 233.507 144.05 233.507 145.34C233.507 146.54 234.377 147.62 235.517 148.94C237.287 147.86 238.367 146.9 238.367 145.34C238.367 144.05 237.527 142.97 235.937 142.97ZM235.397 159.38C236.897 159.38 238.127 158.81 239.117 157.91L234.407 152.15C232.607 153.35 231.707 154.7 231.707 156.32C231.707 157.94 232.967 159.38 235.397 159.38Z" fill="#0F1827"/>
<path d="M89.92 190.58C89.92 195.26 87.43 198.35 81.46 198.35C75.49 198.35 73 195.26 73 190.58V176.45H76.57V190.58C76.57 193.82 78.19 195.29 81.46 195.29C84.76 195.29 86.38 193.82 86.38 190.58V176.45H89.92V190.58Z" fill="#0F1827"/>
<path d="M93.3098 197.9V176.45H97.2998L106.96 192.56H107.02V176.45H110.59V197.9H106.63L96.9398 181.85H96.8798V197.9H93.3098Z" fill="#0F1827"/>
<path d="M114.257 197.9V176.45H122.597C128.507 176.45 132.137 180.29 132.137 187.19C132.137 194.09 128.627 197.9 122.687 197.9H114.257ZM117.827 179.48V194.87H122.417C127.217 194.87 128.567 191.3 128.567 187.19C128.567 183.08 127.217 179.48 122.417 179.48H117.827Z" fill="#0F1827"/>
<path d="M138.569 185.3H149.039V188.36H138.569V194.87H150.809V197.9H134.999V176.45H150.509V179.48H138.569V185.3Z" fill="#0F1827"/>
<path d="M153.72 197.9V176.45H162.87C167.28 176.45 170.13 178.7 170.13 182.6C170.13 185.6 168.6 187.34 166.14 187.94V188C171.09 188.93 169.29 197.33 170.43 197.69V197.9H166.68C165.69 197 167.7 189.62 162.54 189.62H157.29V197.9H153.72ZM157.29 179.48V186.56H162.12C164.31 186.56 166.59 186.14 166.59 183.02C166.59 179.93 164.31 179.48 162.12 179.48H157.29Z" fill="#0F1827"/>
<path d="M181.186 185.12C185.776 186.29 189.256 187.28 189.256 192.08C189.256 195.5 186.676 198.35 181.276 198.35C176.026 198.35 172.036 195.62 171.826 190.76H175.396C175.576 193.49 177.436 195.29 181.276 195.29C184.456 195.29 185.686 193.88 185.686 192.23C185.686 189.68 183.856 189.2 179.626 188.15C176.266 187.31 172.636 186.02 172.636 181.94C172.636 178.13 175.576 176 180.256 176C184.966 176 188.386 178.46 188.686 182.87H185.116C184.786 180.38 183.226 179.06 180.256 179.06C177.706 179.06 176.176 180.02 176.176 181.61C176.176 183.95 178.186 184.37 181.186 185.12Z" fill="#0F1827"/>
<path d="M196.713 197.9V179.48H189.843V176.45H207.123V179.48H200.283V197.9H196.713Z" fill="#0F1827"/>
<path d="M219.344 192.83H210.584L208.844 197.9H205.214L213.104 176.45H216.854L224.714 197.9H221.084L219.344 192.83ZM211.574 189.86H218.384L215.024 179.72H214.964L211.574 189.86Z" fill="#0F1827"/>
<path d="M226.757 197.9V176.45H230.747L240.407 192.56H240.467V176.45H244.037V197.9H240.077L230.387 181.85H230.327V197.9H226.757Z" fill="#0F1827"/>
<path d="M247.704 197.9V176.45H256.044C261.954 176.45 265.584 180.29 265.584 187.19C265.584 194.09 262.074 197.9 256.134 197.9H247.704ZM251.274 179.48V194.87H255.864C260.664 194.87 262.014 191.3 262.014 187.19C262.014 183.08 260.664 179.48 255.864 179.48H251.274Z" fill="#0F1827"/>
<path d="M651.357 149.12C655.947 150.29 659.427 151.28 659.427 156.08C659.427 159.5 656.847 162.35 651.447 162.35C646.197 162.35 642.207 159.62 641.997 154.76H645.567C645.747 157.49 647.607 159.29 651.447 159.29C654.627 159.29 655.857 157.88 655.857 156.23C655.857 153.68 654.027 153.2 649.797 152.15C646.437 151.31 642.807 150.02 642.807 145.94C642.807 142.13 645.747 140 650.427 140C655.137 140 658.557 142.46 658.857 146.87H655.287C654.957 144.38 653.397 143.06 650.427 143.06C647.877 143.06 646.347 144.02 646.347 145.61C646.347 147.95 648.357 148.37 651.357 149.12Z" fill="#0F1827"/>
<path d="M677.151 147.83C676.761 145.67 675.351 143.06 671.391 143.06C666.771 143.06 664.941 146.93 664.941 151.16C664.941 155.42 666.771 159.29 671.391 159.29C675.381 159.29 676.911 156.68 677.151 154.07H680.721C680.241 158.9 676.941 162.35 671.481 162.35C665.301 162.35 661.401 157.64 661.401 151.16C661.401 144.71 665.301 140 671.481 140C676.911 140 680.211 143.45 680.721 147.83H677.151Z" fill="#0F1827"/>
<path d="M693.084 162.35C686.604 162.35 682.554 157.61 682.554 151.16C682.554 144.71 686.604 140 693.084 140C699.534 140 703.614 144.71 703.614 151.16C703.614 157.61 699.534 162.35 693.084 162.35ZM693.084 159.29C698.004 159.29 700.044 155.51 700.044 151.16C700.044 146.84 698.004 143.06 693.084 143.06C688.164 143.06 686.094 146.84 686.094 151.16C686.094 155.51 688.164 159.29 693.084 159.29Z" fill="#0F1827"/>
<path d="M706.45 161.9V140.45H715.57C719.68 140.45 722.65 142.37 722.65 146.87C722.65 151.37 719.68 153.32 715.57 153.32H710.02V161.9H706.45ZM710.02 143.48V150.26H715.42C717.82 150.26 719.08 149.24 719.08 146.87C719.08 144.53 717.82 143.48 715.42 143.48H710.02Z" fill="#0F1827"/>
<path d="M728.594 149.3H739.064V152.36H728.594V158.87H740.834V161.9H725.024V140.45H740.534V143.48H728.594V149.3Z" fill="#0F1827"/>
<path d="M766.438 161.9H762.568L761.128 160.16C759.658 161.48 757.738 162.35 755.368 162.35C750.988 162.35 748.648 159.89 748.648 156.62C748.648 153.44 750.898 151.73 753.148 150.41C751.648 148.58 750.628 147.14 750.628 145.13C750.628 142.61 752.428 140.03 756.118 140C759.568 139.97 761.608 142.61 761.608 145.13C761.608 147.56 759.988 149.06 757.168 150.68L761.098 155.42C761.668 154.22 762.058 152.9 762.268 151.58H765.238C764.968 153.62 764.278 155.9 763.078 157.82L766.438 161.9ZM756.118 142.97C754.558 142.97 753.688 144.05 753.688 145.34C753.688 146.54 754.558 147.62 755.698 148.94C757.468 147.86 758.548 146.9 758.548 145.34C758.548 144.05 757.708 142.97 756.118 142.97ZM755.578 159.38C757.078 159.38 758.308 158.81 759.298 157.91L754.588 152.15C752.788 153.35 751.888 154.7 751.888 156.32C751.888 157.94 753.148 159.38 755.578 159.38Z" fill="#0F1827"/>
<path d="M579.36 185.12C583.95 186.29 587.43 187.28 587.43 192.08C587.43 195.5 584.85 198.35 579.45 198.35C574.2 198.35 570.21 195.62 570 190.76H573.57C573.75 193.49 575.61 195.29 579.45 195.29C582.63 195.29 583.86 193.88 583.86 192.23C583.86 189.68 582.03 189.2 577.8 188.15C574.44 187.31 570.81 186.02 570.81 181.94C570.81 178.13 573.75 176 578.43 176C583.14 176 586.56 178.46 586.86 182.87H583.29C582.96 180.38 581.4 179.06 578.43 179.06C575.88 179.06 574.35 180.02 574.35 181.61C574.35 183.95 576.36 184.37 579.36 185.12Z" fill="#0F1827"/>
<path d="M607.069 190.58C607.069 195.26 604.579 198.35 598.609 198.35C592.639 198.35 590.149 195.26 590.149 190.58V176.45H593.719V190.58C593.719 193.82 595.339 195.29 598.609 195.29C601.909 195.29 603.529 193.82 603.529 190.58V176.45H607.069V190.58Z" fill="#0F1827"/>
<path d="M625.399 183.83C625.009 181.67 623.599 179.06 619.639 179.06C615.019 179.06 613.189 182.93 613.189 187.16C613.189 191.42 615.019 195.29 619.639 195.29C623.629 195.29 625.159 192.68 625.399 190.07H628.969C628.489 194.9 625.189 198.35 619.729 198.35C613.549 198.35 609.649 193.64 609.649 187.16C609.649 180.71 613.549 176 619.729 176C625.159 176 628.459 179.45 628.969 183.83H625.399Z" fill="#0F1827"/>
<path d="M646.551 183.83C646.161 181.67 644.751 179.06 640.791 179.06C636.171 179.06 634.341 182.93 634.341 187.16C634.341 191.42 636.171 195.29 640.791 195.29C644.781 195.29 646.311 192.68 646.551 190.07H650.121C649.641 194.9 646.341 198.35 640.881 198.35C634.701 198.35 630.801 193.64 630.801 187.16C630.801 180.71 634.701 176 640.881 176C646.311 176 649.611 179.45 650.121 183.83H646.551Z" fill="#0F1827"/>
<path d="M656.333 185.3H666.803V188.36H656.333V194.87H668.573V197.9H652.763V176.45H668.273V179.48H656.333V185.3Z" fill="#0F1827"/>
<path d="M679.38 185.12C683.97 186.29 687.45 187.28 687.45 192.08C687.45 195.5 684.87 198.35 679.47 198.35C674.22 198.35 670.23 195.62 670.02 190.76H673.59C673.77 193.49 675.63 195.29 679.47 195.29C682.65 195.29 683.88 193.88 683.88 192.23C683.88 189.68 682.05 189.2 677.82 188.15C674.46 187.31 670.83 186.02 670.83 181.94C670.83 178.13 673.77 176 678.45 176C683.16 176 686.58 178.46 686.88 182.87H683.31C682.98 180.38 681.42 179.06 678.45 179.06C675.9 179.06 674.37 180.02 674.37 181.61C674.37 183.95 676.38 184.37 679.38 185.12Z" fill="#0F1827"/>
<path d="M698.452 185.12C703.042 186.29 706.522 187.28 706.522 192.08C706.522 195.5 703.942 198.35 698.542 198.35C693.292 198.35 689.302 195.62 689.092 190.76H692.662C692.842 193.49 694.702 195.29 698.542 195.29C701.722 195.29 702.952 193.88 702.952 192.23C702.952 189.68 701.122 189.2 696.892 188.15C693.532 187.31 689.902 186.02 689.902 181.94C689.902 178.13 692.842 176 697.522 176C702.232 176 705.652 178.46 705.952 182.87H702.382C702.052 180.38 700.492 179.06 697.522 179.06C694.972 179.06 693.442 180.02 693.442 181.61C693.442 183.95 695.452 184.37 698.452 185.12Z" fill="#0F1827"/>
<path d="M729.959 183.83C729.569 181.67 728.159 179.06 724.199 179.06C719.579 179.06 717.749 182.93 717.749 187.16C717.749 191.42 719.579 195.29 724.199 195.29C728.189 195.29 729.719 192.68 729.959 190.07H733.529C733.049 194.9 729.749 198.35 724.289 198.35C718.109 198.35 714.209 193.64 714.209 187.16C714.209 180.71 718.109 176 724.289 176C729.719 176 733.019 179.45 733.529 183.83H729.959Z" fill="#0F1827"/>
<path d="M736.171 197.9V176.45H745.321C749.731 176.45 752.581 178.7 752.581 182.6C752.581 185.6 751.051 187.34 748.591 187.94V188C753.541 188.93 751.741 197.33 752.881 197.69V197.9H749.131C748.141 197 750.151 189.62 744.991 189.62H739.741V197.9H736.171ZM739.741 179.48V186.56H744.571C746.761 186.56 749.041 186.14 749.041 183.02C749.041 179.93 746.761 179.48 744.571 179.48H739.741Z" fill="#0F1827"/>
<path d="M755.567 176.45H759.137V197.9H755.567V176.45Z" fill="#0F1827"/>
<path d="M767.798 197.9V179.48H760.928V176.45H778.208V179.48H771.368V197.9H767.798Z" fill="#0F1827"/>
<path d="M784.214 185.3H794.684V188.36H784.214V194.87H796.454V197.9H780.644V176.45H796.154V179.48H784.214V185.3Z" fill="#0F1827"/>
<path d="M799.365 197.9V176.45H808.515C812.925 176.45 815.775 178.7 815.775 182.6C815.775 185.6 814.245 187.34 811.785 187.94V188C816.735 188.93 814.935 197.33 816.075 197.69V197.9H812.325C811.335 197 813.345 189.62 808.185 189.62H802.935V197.9H799.365ZM802.935 179.48V186.56H807.765C809.955 186.56 812.235 186.14 812.235 183.02C812.235 179.93 809.955 179.48 807.765 179.48H802.935Z" fill="#0F1827"/>
<path d="M818.761 176.45H822.331V197.9H818.761V176.45Z" fill="#0F1827"/>
<path d="M838.417 192.83H829.657L827.917 197.9H824.287L832.177 176.45H835.927L843.787 197.9H840.157L838.417 192.83ZM830.647 189.86H837.457L834.097 179.72H834.037L830.647 189.86Z" fill="#0F1827"/>
<path d="M1168.61 161.9V140.45H1177.73C1181.84 140.45 1184.81 142.37 1184.81 146.87C1184.81 151.37 1181.84 153.32 1177.73 153.32H1172.18V161.9H1168.61ZM1172.18 143.48V150.26H1177.58C1179.98 150.26 1181.24 149.24 1181.24 146.87C1181.24 144.53 1179.98 143.48 1177.58 143.48H1172.18Z" fill="#0F1827"/>
<path d="M1197.2 162.35C1190.72 162.35 1186.67 157.61 1186.67 151.16C1186.67 144.71 1190.72 140 1197.2 140C1203.65 140 1207.73 144.71 1207.73 151.16C1207.73 157.61 1203.65 162.35 1197.2 162.35ZM1197.2 159.29C1202.12 159.29 1204.16 155.51 1204.16 151.16C1204.16 146.84 1202.12 143.06 1197.2 143.06C1192.28 143.06 1190.21 146.84 1190.21 151.16C1190.21 155.51 1192.28 159.29 1197.2 159.29Z" fill="#0F1827"/>
<path d="M1215.01 161.9V143.48H1208.14V140.45H1225.42V143.48H1218.58V161.9H1215.01Z" fill="#0F1827"/>
<path d="M1231.42 149.3H1241.89V152.36H1231.42V158.87H1243.66V161.9H1227.85V140.45H1243.36V143.48H1231.42V149.3Z" fill="#0F1827"/>
<path d="M1246.57 161.9V140.45H1250.56L1260.22 156.56H1260.28V140.45H1263.85V161.9H1259.89L1250.2 145.85H1250.14V161.9H1246.57Z" fill="#0F1827"/>
<path d="M1272.49 161.9V143.48H1265.62V140.45H1282.9V143.48H1276.06V161.9H1272.49Z" fill="#0F1827"/>
<path d="M1285.39 140.45H1288.96V161.9H1285.39V140.45Z" fill="#0F1827"/>
<path d="M1305.05 156.83H1296.29L1294.55 161.9H1290.92L1298.81 140.45H1302.56L1310.42 161.9H1306.79L1305.05 156.83ZM1297.28 153.86H1304.09L1300.73 143.72H1300.67L1297.28 153.86Z" fill="#0F1827"/>
<path d="M1312.46 140.45H1316.03V158.87H1326.74V161.9H1312.46V140.45Z" fill="#0F1827"/>
<path d="M1173.36 185.12C1177.95 186.29 1181.43 187.28 1181.43 192.08C1181.43 195.5 1178.85 198.35 1173.45 198.35C1168.2 198.35 1164.21 195.62 1164 190.76H1167.57C1167.75 193.49 1169.61 195.29 1173.45 195.29C1176.63 195.29 1177.86 193.88 1177.86 192.23C1177.86 189.68 1176.03 189.2 1171.8 188.15C1168.44 187.31 1164.81 186.02 1164.81 181.94C1164.81 178.13 1167.75 176 1172.43 176C1177.14 176 1180.56 178.46 1180.86 182.87H1177.29C1176.96 180.38 1175.4 179.06 1172.43 179.06C1169.88 179.06 1168.35 180.02 1168.35 181.61C1168.35 183.95 1170.36 184.37 1173.36 185.12Z" fill="#0F1827"/>
<path d="M1193.93 198.35C1187.45 198.35 1183.4 193.61 1183.4 187.16C1183.4 180.71 1187.45 176 1193.93 176C1200.38 176 1204.46 180.71 1204.46 187.16C1204.46 193.61 1200.38 198.35 1193.93 198.35ZM1193.93 195.29C1198.85 195.29 1200.89 191.51 1200.89 187.16C1200.89 182.84 1198.85 179.06 1193.93 179.06C1189.01 179.06 1186.94 182.84 1186.94 187.16C1186.94 191.51 1189.01 195.29 1193.93 195.29Z" fill="#0F1827"/>
<path d="M1207.3 176.45H1210.87V194.87H1221.58V197.9H1207.3V176.45Z" fill="#0F1827"/>
<path d="M1240.12 190.58C1240.12 195.26 1237.63 198.35 1231.66 198.35C1225.69 198.35 1223.2 195.26 1223.2 190.58V176.45H1226.77V190.58C1226.77 193.82 1228.39 195.29 1231.66 195.29C1234.96 195.29 1236.58 193.82 1236.58 190.58V176.45H1240.12V190.58Z" fill="#0F1827"/>
<path d="M1249.15 197.9V179.48H1242.28V176.45H1259.56V179.48H1252.72V197.9H1249.15Z" fill="#0F1827"/>
<path d="M1262.06 176.45H1265.63V197.9H1262.06V176.45Z" fill="#0F1827"/>
<path d="M1279.19 198.35C1272.71 198.35 1268.66 193.61 1268.66 187.16C1268.66 180.71 1272.71 176 1279.19 176C1285.64 176 1289.72 180.71 1289.72 187.16C1289.72 193.61 1285.64 198.35 1279.19 198.35ZM1279.19 195.29C1284.11 195.29 1286.15 191.51 1286.15 187.16C1286.15 182.84 1284.11 179.06 1279.19 179.06C1274.27 179.06 1272.2 182.84 1272.2 187.16C1272.2 191.51 1274.27 195.29 1279.19 195.29Z" fill="#0F1827"/>
<path d="M1292.55 197.9V176.45H1296.54L1306.2 192.56H1306.26V176.45H1309.83V197.9H1305.87L1296.18 181.85H1296.12V197.9H1292.55Z" fill="#0F1827"/>
<path d="M1321.72 185.12C1326.31 186.29 1329.79 187.28 1329.79 192.08C1329.79 195.5 1327.21 198.35 1321.81 198.35C1316.56 198.35 1312.57 195.62 1312.36 190.76H1315.93C1316.11 193.49 1317.97 195.29 1321.81 195.29C1324.99 195.29 1326.22 193.88 1326.22 192.23C1326.22 189.68 1324.39 189.2 1320.16 188.15C1316.8 187.31 1313.17 186.02 1313.17 181.94C1313.17 178.13 1316.11 176 1320.79 176C1325.5 176 1328.92 178.46 1329.22 182.87H1325.65C1325.32 180.38 1323.76 179.06 1320.79 179.06C1318.24 179.06 1316.71 180.02 1316.71 181.61C1316.71 183.95 1318.72 184.37 1321.72 185.12Z" fill="#0F1827"/>
<path d="M1670 161.9V140.45H1679.15C1683.56 140.45 1686.41 142.7 1686.41 146.6C1686.41 149.6 1684.88 151.34 1682.42 151.94V152C1687.37 152.93 1685.57 161.33 1686.71 161.69V161.9H1682.96C1681.97 161 1683.98 153.62 1678.82 153.62H1673.57V161.9H1670ZM1673.57 143.48V150.56H1678.4C1680.59 150.56 1682.87 150.14 1682.87 147.02C1682.87 143.93 1680.59 143.48 1678.4 143.48H1673.57Z" fill="white"/>
<path d="M1692.91 149.3H1703.38V152.36H1692.91V158.87H1705.15V161.9H1689.34V140.45H1704.85V143.48H1692.91V149.3Z" fill="white"/>
<path d="M1722.56 147.83C1722.17 145.67 1720.76 143.06 1716.8 143.06C1712.18 143.06 1710.35 146.93 1710.35 151.16C1710.35 155.42 1712.18 159.29 1716.8 159.29C1720.79 159.29 1722.32 156.68 1722.56 154.07H1726.13C1725.65 158.9 1722.35 162.35 1716.89 162.35C1710.71 162.35 1706.81 157.64 1706.81 151.16C1706.81 144.71 1710.71 140 1716.89 140C1722.32 140 1725.62 143.45 1726.13 147.83H1722.56Z" fill="white"/>
<path d="M1738.49 162.35C1732.01 162.35 1727.96 157.61 1727.96 151.16C1727.96 144.71 1732.01 140 1738.49 140C1744.94 140 1749.02 144.71 1749.02 151.16C1749.02 157.61 1744.94 162.35 1738.49 162.35ZM1738.49 159.29C1743.41 159.29 1745.45 155.51 1745.45 151.16C1745.45 146.84 1743.41 143.06 1738.49 143.06C1733.57 143.06 1731.5 146.84 1731.5 151.16C1731.5 155.51 1733.57 159.29 1738.49 159.29Z" fill="white"/>
<path d="M1751.86 161.9V140.45H1756.48L1762.48 156.95H1762.54L1768.51 140.45H1773.13V161.9H1769.65V145.64H1769.59L1763.92 161.9H1761.07L1755.4 145.64H1755.34V161.9H1751.86Z" fill="white"/>
<path d="M1776.79 161.9V140.45H1781.41L1787.41 156.95H1787.47L1793.44 140.45H1798.06V161.9H1794.58V145.64H1794.52L1788.85 161.9H1786L1780.33 145.64H1780.27V161.9H1776.79Z" fill="white"/>
<path d="M1805.29 149.3H1815.76V152.36H1805.29V158.87H1817.53V161.9H1801.72V140.45H1817.23V143.48H1805.29V149.3Z" fill="white"/>
<path d="M1820.44 161.9V140.45H1824.43L1834.09 156.56H1834.15V140.45H1837.72V161.9H1833.76L1824.07 145.85H1824.01V161.9H1820.44Z" fill="white"/>
<path d="M1841.39 161.9V140.45H1849.73C1855.64 140.45 1859.27 144.29 1859.27 151.19C1859.27 158.09 1855.76 161.9 1849.82 161.9H1841.39ZM1844.96 143.48V158.87H1849.55C1854.35 158.87 1855.7 155.3 1855.7 151.19C1855.7 147.08 1854.35 143.48 1849.55 143.48H1844.96Z" fill="white"/>
<path d="M1865.7 149.3H1876.17V152.36H1865.7V158.87H1877.94V161.9H1862.13V140.45H1877.64V143.48H1865.7V149.3Z" fill="white"/>
<path d="M1880.85 161.9V140.45H1889.19C1895.1 140.45 1898.73 144.29 1898.73 151.19C1898.73 158.09 1895.22 161.9 1889.28 161.9H1880.85ZM1884.42 143.48V158.87H1889.01C1893.81 158.87 1895.16 155.3 1895.16 151.19C1895.16 147.08 1893.81 143.48 1889.01 143.48H1884.42Z" fill="white"/>
<path d="M1719.79 185.12C1724.38 186.29 1727.86 187.28 1727.86 192.08C1727.86 195.5 1725.28 198.35 1719.88 198.35C1714.63 198.35 1710.64 195.62 1710.43 190.76H1714C1714.18 193.49 1716.04 195.29 1719.88 195.29C1723.06 195.29 1724.29 193.88 1724.29 192.23C1724.29 189.68 1722.46 189.2 1718.23 188.15C1714.87 187.31 1711.24 186.02 1711.24 181.94C1711.24 178.13 1714.18 176 1718.86 176C1723.57 176 1726.99 178.46 1727.29 182.87H1723.72C1723.39 180.38 1721.83 179.06 1718.86 179.06C1716.31 179.06 1714.78 180.02 1714.78 181.61C1714.78 183.95 1716.79 184.37 1719.79 185.12Z" fill="white"/>
<path d="M1740.36 198.35C1733.88 198.35 1729.83 193.61 1729.83 187.16C1729.83 180.71 1733.88 176 1740.36 176C1746.81 176 1750.89 180.71 1750.89 187.16C1750.89 193.61 1746.81 198.35 1740.36 198.35ZM1740.36 195.29C1745.28 195.29 1747.32 191.51 1747.32 187.16C1747.32 182.84 1745.28 179.06 1740.36 179.06C1735.44 179.06 1733.37 182.84 1733.37 187.16C1733.37 191.51 1735.44 195.29 1740.36 195.29Z" fill="white"/>
<path d="M1753.73 176.45H1757.3V194.87H1768.01V197.9H1753.73V176.45Z" fill="white"/>
<path d="M1786.55 190.58C1786.55 195.26 1784.06 198.35 1778.09 198.35C1772.12 198.35 1769.63 195.26 1769.63 190.58V176.45H1773.2V190.58C1773.2 193.82 1774.82 195.29 1778.09 195.29C1781.39 195.29 1783.01 193.82 1783.01 190.58V176.45H1786.55V190.58Z" fill="white"/>
<path d="M1795.58 197.9V179.48H1788.71V176.45H1805.99V179.48H1799.15V197.9H1795.58Z" fill="white"/>
<path d="M1808.49 176.45H1812.06V197.9H1808.49V176.45Z" fill="white"/>
<path d="M1825.62 198.35C1819.14 198.35 1815.09 193.61 1815.09 187.16C1815.09 180.71 1819.14 176 1825.62 176C1832.07 176 1836.15 180.71 1836.15 187.16C1836.15 193.61 1832.07 198.35 1825.62 198.35ZM1825.62 195.29C1830.54 195.29 1832.58 191.51 1832.58 187.16C1832.58 182.84 1830.54 179.06 1825.62 179.06C1820.7 179.06 1818.63 182.84 1818.63 187.16C1818.63 191.51 1820.7 195.29 1825.62 195.29Z" fill="white"/>
<path d="M1838.98 197.9V176.45H1842.97L1852.63 192.56H1852.69V176.45H1856.26V197.9H1852.3L1842.61 181.85H1842.55V197.9H1838.98Z" fill="white"/>
<path d="M2239.57 149.3H2250.04V152.36H2239.57V158.87H2251.81V161.9H2236V140.45H2251.51V143.48H2239.57V149.3Z" fill="#0F1827"/>
<path d="M2253.07 140.45H2256.85L2262.31 158H2262.34L2267.8 140.45H2271.58L2264.26 161.9H2260.39L2253.07 140.45Z" fill="#0F1827"/>
<path d="M2283.87 156.83H2275.11L2273.37 161.9H2269.74L2277.63 140.45H2281.38L2289.24 161.9H2285.61L2283.87 156.83ZM2276.1 153.86H2282.91L2279.55 143.72H2279.49L2276.1 153.86Z" fill="#0F1827"/>
<path d="M2291.28 140.45H2294.85V158.87H2305.56V161.9H2291.28V140.45Z" fill="#0F1827"/>
<path d="M2324.1 154.58C2324.1 159.26 2321.61 162.35 2315.64 162.35C2309.67 162.35 2307.18 159.26 2307.18 154.58V140.45H2310.75V154.58C2310.75 157.82 2312.37 159.29 2315.64 159.29C2318.94 159.29 2320.56 157.82 2320.56 154.58V140.45H2324.1V154.58Z" fill="#0F1827"/>
<path d="M2339.39 156.83H2330.63L2328.89 161.9H2325.26L2333.15 140.45H2336.9L2344.76 161.9H2341.13L2339.39 156.83ZM2331.62 153.86H2338.43L2335.07 143.72H2335.01L2331.62 153.86Z" fill="#0F1827"/>
<path d="M2349.75 161.9V143.48H2342.88V140.45H2360.16V143.48H2353.32V161.9H2349.75Z" fill="#0F1827"/>
<path d="M2362.65 140.45H2366.22V161.9H2362.65V140.45Z" fill="#0F1827"/>
<path d="M2369.92 161.9V140.45H2373.91L2383.57 156.56H2383.63V140.45H2387.2V161.9H2383.24L2373.55 145.85H2373.49V161.9H2369.92Z" fill="#0F1827"/>
<path d="M2405.95 147.14C2405.41 144.59 2403.43 143.06 2400.25 143.06C2395.66 143.06 2393.77 147.14 2393.77 151.16C2393.77 155.21 2395.24 159.29 2400.13 159.29C2403.52 159.29 2406.22 156.95 2406.25 153.53H2400.19V150.65H2409.88V161.9H2407.42L2406.64 158.96H2406.58C2405.14 161.12 2403.13 162.35 2399.89 162.35C2393.68 162.35 2390.2 157.64 2390.2 151.16C2390.2 144.71 2394.1 140 2400.28 140C2405.86 140 2408.86 143.03 2409.52 147.14H2405.95Z" fill="#0F1827"/>
<path d="M2260.67 197.9V176.45H2269.82C2274.23 176.45 2277.08 178.7 2277.08 182.6C2277.08 185.6 2275.55 187.34 2273.09 187.94V188C2278.04 188.93 2276.24 197.33 2277.38 197.69V197.9H2273.63C2272.64 197 2274.65 189.62 2269.49 189.62H2264.24V197.9H2260.67ZM2264.24 179.48V186.56H2269.07C2271.26 186.56 2273.54 186.14 2273.54 183.02C2273.54 179.93 2271.26 179.48 2269.07 179.48H2264.24Z" fill="#0F1827"/>
<path d="M2283.57 185.3H2294.04V188.36H2283.57V194.87H2295.81V197.9H2280V176.45H2295.51V179.48H2283.57V185.3Z" fill="#0F1827"/>
<path d="M2306.62 185.12C2311.21 186.29 2314.69 187.28 2314.69 192.08C2314.69 195.5 2312.11 198.35 2306.71 198.35C2301.46 198.35 2297.47 195.62 2297.26 190.76H2300.83C2301.01 193.49 2302.87 195.29 2306.71 195.29C2309.89 195.29 2311.12 193.88 2311.12 192.23C2311.12 189.68 2309.29 189.2 2305.06 188.15C2301.7 187.31 2298.07 186.02 2298.07 181.94C2298.07 178.13 2301.01 176 2305.69 176C2310.4 176 2313.82 178.46 2314.12 182.87H2310.55C2310.22 180.38 2308.66 179.06 2305.69 179.06C2303.14 179.06 2301.61 180.02 2301.61 181.61C2301.61 183.95 2303.62 184.37 2306.62 185.12Z" fill="#0F1827"/>
<path d="M2334.33 190.58C2334.33 195.26 2331.84 198.35 2325.87 198.35C2319.9 198.35 2317.41 195.26 2317.41 190.58V176.45H2320.98V190.58C2320.98 193.82 2322.6 195.29 2325.87 195.29C2329.17 195.29 2330.79 193.82 2330.79 190.58V176.45H2334.33V190.58Z" fill="#0F1827"/>
<path d="M2337.72 176.45H2341.29V194.87H2352V197.9H2337.72V176.45Z" fill="#0F1827"/>
<path d="M2357.1 197.9V179.48H2350.23V176.45H2367.51V179.48H2360.67V197.9H2357.1Z" fill="#0F1827"/>
<path d="M2377.69 185.12C2382.28 186.29 2385.76 187.28 2385.76 192.08C2385.76 195.5 2383.18 198.35 2377.78 198.35C2372.53 198.35 2368.54 195.62 2368.33 190.76H2371.9C2372.08 193.49 2373.94 195.29 2377.78 195.29C2380.96 195.29 2382.19 193.88 2382.19 192.23C2382.19 189.68 2380.36 189.2 2376.13 188.15C2372.77 187.31 2369.14 186.02 2369.14 181.94C2369.14 178.13 2372.08 176 2376.76 176C2381.47 176 2384.89 178.46 2385.19 182.87H2381.62C2381.29 180.38 2379.73 179.06 2376.76 179.06C2374.21 179.06 2372.68 180.02 2372.68 181.61C2372.68 183.95 2374.69 184.37 2377.69 185.12Z" fill="#0F1827"/>
</svg>
