<?xml version="1.0" encoding="utf-8"?>
<!-- Generator: Adobe Illustrator 23.0.4, SVG Export Plug-In . SVG Version: 6.00 Build 0)  -->
<svg version="1.1" id="Layer_1" xmlns="http://www.w3.org/2000/svg" xmlns:xlink="http://www.w3.org/1999/xlink" x="0px" y="0px"
	 viewBox="0 0 10 96" style="enable-background:new 0 0 10 96;" xml:space="preserve">
<style type="text/css">
	.st0{fill:#FFFFFF;}
</style>
<g>
	<path class="st0" d="M9,93.3v1.4H1v-3.3c0-1.9,1.1-2.7,2.4-2.7s2.4,0.8,2.4,2.7v2H9z M4.6,91.4c0-0.9-0.5-1.3-1.1-1.3
		c-0.7,0-1.2,0.4-1.2,1.3v2h2.3V91.4z"/>
	<path class="st0" d="M9,82.6l-3.2,1.6v1.8H9v1.4H1v-3.5c0-1.8,1-2.6,2.4-2.6c1.1,0,1.9,0.5,2.3,1.6L9,81V82.6z M2.3,83.9v2.2h2.3
		v-2.2c0-0.8-0.5-1.3-1.2-1.3S2.3,83.1,2.3,83.9z"/>
	<path class="st0" d="M0.8,76.2C0.8,73.7,2.6,72,5,72s4.2,1.7,4.2,4.1c0,2.4-1.8,4.1-4.2,4.1S0.8,78.6,0.8,76.2z M7.9,76.2
		c0-1.6-1.1-2.7-2.9-2.7s-2.9,1.1-2.9,2.7s1.1,2.7,2.9,2.7S7.9,77.7,7.9,76.2z"/>
	<path class="st0" d="M9,70.6H1v-2.7c0-2.8,1.6-4.3,4-4.3s4,1.5,4,4.3V70.6z M2.3,67.9v1.3h5.5v-1.3c0-2-1.1-2.9-2.7-2.9
		S2.3,65.9,2.3,67.9z"/>
	<path class="st0" d="M5.7,62.2H1v-1.4h4.8c1.3,0,2.1-0.6,2.1-2s-0.9-2-2.1-2H1v-1.4h4.7c2.3,0,3.5,1.5,3.5,3.3
		C9.2,60.7,8,62.2,5.7,62.2z"/>
	<path class="st0" d="M0.8,50.1c0-2,1.2-3.5,3.1-3.8v1.5c-1.1,0.3-1.8,1.2-1.8,2.4c0,1.6,1.1,2.6,2.9,2.6s2.9-1,2.9-2.6
		c0-1.2-0.7-2.1-1.8-2.4v-1.5c1.9,0.3,3.1,1.9,3.1,3.8c0,2.3-1.7,4-4.2,4C2.5,54.1,0.8,52.5,0.8,50.1z"/>
	<path class="st0" d="M2.3,40.1v2.3H9v1.4H2.3v2.3H1v-6H2.3z"/>
	<path class="st0" d="M6.8,34.8c-1.9,0-0.4,4.5-3.6,4.5c-1.3,0-2.4-1.1-2.4-2.9c0-1.9,1.1-2.9,2.6-2.9v1.3c-0.8,0-1.4,0.5-1.4,1.6
		c0,0.9,0.4,1.5,1.1,1.5c1.8,0,0.4-4.5,3.6-4.5c1.5,0,2.4,1.3,2.4,3.2c0,2.1-1.4,3-2.7,3v-1.4c0.9-0.1,1.4-0.6,1.4-1.7
		C7.9,35.5,7.5,34.8,6.8,34.8z"/>
</g>
</svg>
