<?xml version="1.0" encoding="utf-8"?>
<!-- Generator: Adobe Illustrator 21.0.2, SVG Export Plug-In . SVG Version: 6.00 Build 0)  -->
<svg version="1.1" id="Layer_1" xmlns="http://www.w3.org/2000/svg" xmlns:xlink="http://www.w3.org/1999/xlink" x="0px" y="0px"
	 viewBox="0 0 22.2 18.7" style="enable-background:new 0 0 22.2 18.7;" xml:space="preserve">
<style type="text/css">
	.st0{clip-path:url(#SVGID_2_);fill:#FEFFFD;}
</style>
<g>
	<g>
		<defs>
			<rect id="SVGID_1_" x="1.5" y="0.7" width="20.7" height="18"/>
		</defs>
		<clipPath id="SVGID_2_">
			<use xlink:href="#SVGID_1_"  style="overflow:visible;"/>
		</clipPath>
		<path class="st0" d="M13.2,1c-0.3-0.4-0.9-0.4-1.3,0c-0.3,0.3-0.3,0.9,0,1.3l6.4,6.4h-16c-0.5,0-0.9,0.4-0.9,0.9
			c0,0.5,0.4,0.9,0.9,0.9h16l-6.4,6.4c-0.3,0.4-0.3,0.9,0,1.3c0.4,0.4,0.9,0.4,1.3,0l8-8c0.4-0.3,0.4-0.9,0-1.3L13.2,1z M13.2,1"/>
	</g>
</g>
</svg>
