<svg width="140" height="140" viewBox="0 0 140 140" fill="none" xmlns="http://www.w3.org/2000/svg">
<circle cx="70" cy="70" r="70" fill="#EC6508"/>
<path d="M47.7112 71.309C50.0509 71.8566 52.5897 72.3793 52.5897 75.4159C52.5897 77.8551 50.4989 79.3734 47.4126 79.3734C43.3057 79.3734 41.5385 77.4568 41.4141 74.7687H43.9528C44.0773 76.1377 44.6747 77.3075 47.3628 77.3075C49.1797 77.3075 49.9513 76.4115 49.9513 75.615C49.9513 74.022 48.433 73.8976 46.5663 73.4496C44.5502 72.9766 41.8123 72.5784 41.8123 69.6912C41.8123 67.6004 43.6542 65.9328 46.8401 65.9328C50.2998 65.9328 51.9425 67.7995 52.1168 70.0147H49.578C49.4038 69.0191 48.906 67.9986 46.865 67.9986C45.2969 67.9986 44.4506 68.596 44.4506 69.492C44.4506 70.7863 45.8694 70.8859 47.7112 71.309Z" fill="white"/>
<path d="M63.2953 70.9357C63.1957 69.6414 62.3744 68.0733 60.1343 68.0733C57.5706 68.0733 56.4754 70.2636 56.4754 72.6531C56.4754 75.0425 57.5457 77.2328 60.1343 77.2328C62.3744 77.2328 63.1957 75.6897 63.2953 74.2709H65.9087C65.7096 77.2079 63.4446 79.3734 60.1343 79.3734C56.3261 79.3734 53.862 76.6355 53.862 72.6531C53.862 68.6707 56.3261 65.9328 60.1094 65.9328C63.4197 65.9328 65.5852 68.0484 65.9087 70.9357H63.2953Z" fill="white"/>
<path d="M73.6836 65.9826C74.1316 65.9826 74.4552 66.0074 74.8285 66.0572V68.5213H74.7787C72.2648 68.0982 70.2487 69.7907 70.2487 72.5037V79H67.6353V66.2812H70.2487V68.6707H70.2985C70.9705 67.0777 72.0159 65.9826 73.6836 65.9826Z" fill="white"/>
<path d="M81.8187 79.3734C77.8363 79.3734 75.422 76.6106 75.422 72.6531C75.422 68.6956 77.8363 65.9328 81.8187 65.9328C85.8011 65.9328 88.2154 68.6956 88.2154 72.6531C88.2154 76.6106 85.8011 79.3734 81.8187 79.3734ZM81.8187 77.2328C84.3077 77.2328 85.602 75.2665 85.602 72.6531C85.602 70.0147 84.3077 68.0733 81.8187 68.0733C79.3297 68.0733 78.0354 70.0147 78.0354 72.6531C78.0354 75.2665 79.3297 77.2328 81.8187 77.2328Z" fill="white"/>
<path d="M90.0715 61.2037H92.7098V79H90.0715V61.2037Z" fill="white"/>
<path d="M95.103 61.2037H97.7413V79H95.103V61.2037Z" fill="white"/>
</svg>
